<?xml version="1.0" encoding="UTF-8"?><svg id="Layer_1" xmlns="http://www.w3.org/2000/svg" viewBox="0 0 502.32 198.75"><defs><style>.cls-1{fill:#000;stroke-width:0px;}</style></defs><g id="_20_logo"><path class="cls-1" d="M418.29,76.19c-13.09,0-23.7,10.61-23.7,23.7s10.61,23.7,23.7,23.7,23.7-10.61,23.7-23.7h0c0-13.08-10.58-23.69-23.66-23.7-.01,0-.02,0-.04,0ZM418.29,116.94c-9.52,0-17.23-7.72-17.23-17.23s7.72-17.23,17.23-17.23c9.52,0,17.23,7.72,17.23,17.23h0c0,9.52-7.72,17.23-17.23,17.23h0Z"/><path class="cls-1" d="M239.32,76.01c-10.91,0-19.75,8.84-19.75,19.75v23.7c-.1,1.78,1.27,3.31,3.05,3.41,1.78.1,3.31-1.27,3.41-3.05v-23.87c0-7.44,6.01-13.47,13.45-13.48,7.44,0,13.47,6.01,13.48,13.45v23.72c0,1.78,1.45,3.23,3.23,3.23s3.23-1.45,3.23-3.23h0v-23.7c-.18-11-9.11-19.84-20.11-19.93Z"/><path class="cls-1" d="M212.58,99.35c0-12.89-10.45-23.34-23.34-23.34s-23.34,10.45-23.34,23.34,10.45,23.34,23.34,23.34h7.18c1.78,0,3.23-1.44,3.23-3.23,0-1.78-1.44-3.23-3.23-3.23h-7.19c-9.32,0-16.87-7.55-16.87-16.87,0-9.32,7.55-16.87,16.87-16.87s16.87,7.55,16.87,16.87v20.11c-.1,1.78,1.27,3.31,3.05,3.41,1.78.1,3.31-1.27,3.41-3.05v-20.46Z"/><path class="cls-1" d="M384.91,76.19c-1.77,0-3.22,1.42-3.23,3.2,0,.01,0,.02,0,.04h0v23.7c.02,7.32-5.9,13.26-13.21,13.28-.02,0-.05,0-.07,0h-2.33c-1.78,0-3.23,1.44-3.23,3.23,0,1.78,1.44,3.23,3.23,3.23h2.34c10.91,0,19.75-8.84,19.75-19.75v-23.87c-.19-1.67-1.55-2.96-3.23-3.05Z"/><path class="cls-1" d="M355.65,99.52c0-12.89-10.45-23.34-23.34-23.34s-23.34,10.45-23.34,23.34,10.45,23.34,23.34,23.34h7.36c1.78,0,3.23-1.44,3.23-3.23,0-1.78-1.44-3.23-3.23-3.23h-7.37c-9.32,0-16.87-7.55-16.87-16.87s7.55-16.87,16.87-16.87c9.32,0,16.87,7.55,16.87,16.87h0v20.11c0,1.78,1.45,3.23,3.23,3.23s3.23-1.45,3.23-3.23h0v-20.11Z"/><path class="cls-1" d="M308.08,79.96c.02-1.77-1.41-3.23-3.18-3.25-1.24-.01-2.38.69-2.92,1.81l-17.23,34.47-17.23-34.47c-.76-1.62-2.67-2.34-4.31-1.62-1.1.54-1.8,1.65-1.8,2.87.03.5.16.98.36,1.44l20.11,40.21c.79,1.59,2.72,2.23,4.31,1.44.61-.33,1.11-.83,1.44-1.44l20.11-40.21c.22-.38.35-.81.36-1.26Z"/><path class="cls-1" d="M103.79,62.55l-19.75,19.75c-9.62,9.62-9.62,25.21,0,34.83,9.62,9.62,25.21,9.62,34.83,0,9.62-9.62,9.62-25.21,0-34.83,0,0,0,0,0,0h0l-11.31-11.31,2.33-2.33c2.07-1.94,5.29-1.94,7.36,0l7.36,7.36c12.64,12.74,12.55,33.31-.18,45.95-12.74,12.64-33.31,12.55-45.95-.18-12.57-12.67-12.57-33.1,0-45.76l9.51-9.51c1.69-1.69,1.69-4.42,0-6.1s-4.42-1.69-6.1,0h0l-9.51,9.51c-16.06,16.06-16.06,42.1,0,58.16,16.06,16.06,42.1,16.06,58.16,0,16.06-16.06,16.06-42.1,0-58.16h0l-7.36-7.36c-5.41-5.21-13.97-5.21-19.39,0ZM112.95,88.4c6.32,6.3,6.35,16.52.05,22.85-6.3,6.32-16.52,6.35-22.85.05-6.32-6.3-6.35-16.52-.05-22.85.02-.02.03-.03.05-.05l11.31-11.31,11.49,11.31Z"/></g></svg>