<?xml version="1.0" encoding="UTF-8"?>
<svg id="Layer_1" data-name="Layer 1" xmlns="http://www.w3.org/2000/svg" viewBox="0 0 178.58 28.35">
  <g id="Layer_2" data-name="Layer 2">
    <g>
      <g>
        <path d="M72.11,26.71h-2.51v-8.96c0-3.33-1.22-5-3.65-5-1.26,0-2.3.47-3.12,1.42-.82.95-1.23,2.14-1.23,3.58v8.96h-2.51v-15.7h2.51v2.61h.06c1.19-1.98,2.9-2.97,5.15-2.97,1.72,0,3.03.55,3.94,1.66.91,1.11,1.36,2.71,1.36,4.81,0,0,0,9.6,0,9.6Z"/>
        <path d="M87.68,26.71h-2.51v-2.45h-.06c-1.09,1.88-2.7,2.82-4.83,2.82-1.57,0-2.79-.41-3.67-1.24-.88-.83-1.33-1.93-1.33-3.3,0-2.93,1.73-4.64,5.18-5.12l4.71-.66c0-2.67-1.08-4-3.24-4-1.89,0-3.6.64-5.12,1.93v-2.58c1.54-.98,3.32-1.47,5.34-1.47,3.69,0,5.54,1.95,5.54,5.86v10.21h0ZM85.17,18.77l-3.79.52c-1.17.16-2.04.45-2.64.87-.59.41-.89,1.15-.89,2.2,0,.77.27,1.39.82,1.88.55.49,1.28.73,2.18.73,1.25,0,2.28-.44,3.09-1.31.81-.87,1.22-1.98,1.22-3.32v-1.56Z"/>
        <path d="M105.05,26.71h-2.51v-8.96c0-3.33-1.22-5-3.65-5-1.26,0-2.3.47-3.12,1.42-.82.95-1.23,2.14-1.23,3.58v8.96h-2.51v-15.7h2.51v2.61h.06c1.19-1.98,2.9-2.97,5.15-2.97,1.72,0,3.03.55,3.94,1.66.91,1.11,1.36,2.71,1.36,4.81,0,0,0,9.6,0,9.6Z"/>
        <path d="M116.07,27.08c-2.32,0-4.17-.73-5.56-2.2-1.39-1.47-2.08-3.41-2.08-5.83,0-2.64.72-4.7,2.16-6.18,1.44-1.48,3.39-2.22,5.84-2.22s4.17.72,5.48,2.16c1.31,1.44,1.97,3.44,1.97,6s-.71,4.51-2.12,6.02c-1.42,1.51-3.32,2.26-5.7,2.26ZM116.26,12.76c-1.62,0-2.89.55-3.83,1.65s-1.41,2.61-1.41,4.55.48,3.33,1.43,4.4c.95,1.07,2.22,1.61,3.82,1.61s2.88-.53,3.75-1.58c.87-1.05,1.31-2.55,1.31-4.49s-.44-3.48-1.31-4.54c-.87-1.06-2.12-1.59-3.75-1.59Z"/>
        <path d="M126.53,26.14v-2.7c1.37,1.01,2.88,1.52,4.52,1.52,2.21,0,3.31-.74,3.31-2.21,0-.42-.09-.77-.28-1.07-.19-.29-.44-.55-.77-.77-.32-.22-.7-.43-1.13-.61-.43-.18-.9-.37-1.4-.56-.7-.28-1.31-.55-1.83-.84-.53-.28-.97-.6-1.32-.95-.35-.35-.62-.75-.8-1.2-.18-.45-.27-.98-.27-1.58,0-.74.17-1.39.51-1.96.34-.57.79-1.04,1.35-1.43.56-.38,1.2-.67,1.92-.87.72-.19,1.46-.29,2.23-.29,1.36,0,2.58.24,3.65.71v2.55c-1.16-.76-2.48-1.13-3.99-1.13-.47,0-.9.05-1.27.16-.38.11-.7.26-.97.45-.27.19-.48.43-.63.7-.15.27-.22.57-.22.9,0,.41.07.75.22,1.03.15.28.37.52.65.74.29.21.63.41,1.04.58.41.17.87.36,1.4.57.7.27,1.32.54,1.87.82.55.28,1.02.6,1.41.95.39.35.69.76.9,1.22.21.46.32,1.01.32,1.64,0,.78-.17,1.45-.51,2.02-.34.57-.8,1.05-1.37,1.43-.57.38-1.23.66-1.98.84-.75.18-1.53.28-2.35.28-1.62,0-3.02-.31-4.2-.93Z"/>
        <path d="M153.03,26.71h-2.51v-2.48h-.06c-1.04,1.9-2.66,2.85-4.85,2.85-3.74,0-5.61-2.23-5.61-6.69v-9.38h2.5v8.99c0,3.31,1.27,4.97,3.8,4.97,1.23,0,2.24-.45,3.03-1.36.79-.91,1.19-2.09,1.19-3.55v-9.05h2.51v15.7Z"/>
        <path d="M165.74,13.55c-.44-.34-1.07-.51-1.9-.51-1.07,0-1.97.51-2.69,1.52-.72,1.01-1.08,2.39-1.08,4.14v8h-2.51v-15.7h2.51v3.24h.06c.36-1.1.9-1.97,1.64-2.58.74-.62,1.56-.93,2.47-.93.65,0,1.16.07,1.5.21v2.61Z"/>
        <path d="M177.01,5.67c-.49-.28-1.05-.41-1.67-.41-1.76,0-2.64,1.11-2.64,3.33v2.42h3.68v2.15h-3.68v13.56h-2.5v-13.56h-2.68v-2.15h2.68v-2.55c0-1.65.48-2.95,1.43-3.9.95-.96,2.14-1.43,3.56-1.43.77,0,1.38.09,1.83.28v2.27Z"/>
      </g>
      <g>
        <circle cx="23.41" cy="21.54" r="5.53"/>
        <g>
          <path d="M6.53,22.24c-.42,0-.84-.09-1.25-.28-1.49-.69-2.14-2.46-1.45-3.95.16-.35.31-.73.45-1.14.14-.42.25-.81.33-1.21.09-.42.15-.8.19-1.17.05-.48.07-.89.07-1.26,0-.38-.03-.79-.08-1.24-.04-.42-.14-.87-.22-1.25-.08-.36-.21-.75-.34-1.15-.12-.35-.27-.72-.48-1.15-.15-.31-.33-.64-.59-1.06-.21-.35-.44-.68-.68-.97l-.23-.28c-1.04-1.27-.85-3.15.42-4.19,1.27-1.04,3.15-.85,4.19.42l.23.28c.42.51.81,1.07,1.17,1.66.36.59.63,1.09.86,1.57.31.65.56,1.26.76,1.84.18.53.36,1.1.5,1.74.12.54.25,1.19.33,1.9.07.64.11,1.23.11,1.79,0,.61-.02,1.25-.1,1.96-.06.59-.16,1.18-.29,1.81-.13.61-.3,1.21-.51,1.84-.21.63-.43,1.2-.69,1.76-.5,1.09-1.58,1.73-2.7,1.73Z"/>
          <path d="M4.55,27.06c-.35,0-.7-.06-1.05-.19-1.54-.58-2.32-2.3-1.74-3.83l.21-.57c.17-.46.34-.92.52-1.37.26-.64.53-1.28.81-1.91.17-.38.34-.77.51-1.15.22-.48.46-.95.71-1.42.25-.46.5-.91.77-1.35.27-.44.56-.88.86-1.29l.15-.2c.25-.35.5-.69.77-1.02l.15-.19c.28-.34.56-.69.86-1.01.31-.33.62-.65.94-.98l.09-.09c.29-.3.61-.58.92-.85l.23-.2c.34-.31.7-.59,1.06-.87l.12-.1c.42-.33.85-.64,1.29-.93.44-.29.88-.57,1.33-.84l.3-.18s.03-.02.04-.03l.18-.1c.38-.21.76-.42,1.14-.62.46-.24.92-.47,1.39-.69.45-.21.9-.41,1.36-.61.36-.16.73-.3,1.1-.45l.3-.12c.51-.2,1.03-.4,1.55-.56l.24-.08c.4-.13.8-.25,1.2-.37.5-.15,1.01-.29,1.52-.42.49-.12.99-.23,1.48-.34.46-.1.92-.18,1.38-.26l.15-.03c.52-.09,1.04-.16,1.56-.23.52-.07,1.03-.13,1.55-.17.52-.05,1.03-.09,1.54-.11h.29c.4-.03.81-.05,1.21-.05.5,0,.99,0,1.49.01h.11c.48.01.96.02,1.44.06.33.02.65.05.98.08l.48.04c.54.05,1.09.11,1.63.19l.42.06c.38.05.75.11,1.12.18l.24.05c.4.08.81.16,1.21.25.52.11,1.04.24,1.55.37l.66.18c1.21.32,2.13,1.36,2.3,2.61.06.44.09,1.53-.79,2.51-.11.12-.24.24-.37.35-.11.08-.21.16-.33.23-.42.26-.77.51-1.07.76-.41.33-.76.66-1.08.99-.34.36-.64.71-.9,1.06-.28.39-.53.78-.75,1.15-.23.41-.43.82-.62,1.27l-.05.12c-.04.11-.08.22-.12.34-.05.14-.13.4-.2.79-.05.29-.07.59-.07.89,0,.15,0,.3.02.45v.12c.01.08.03.17.04.25l.03.21c.02.15.07.4.19.75.11.3.24.6.39.89.14.26.3.52.49.76.17.22.37.44.62.67.11.1.22.19.33.28.07.06.16.11.24.17l.22.16c.24.17.61.34.73.39.22.1.5.19.88.3,1.59.43,2.52,2.07,2.08,3.66-.43,1.58-2.08,2.52-3.66,2.08-.43-.12-1.08-.31-1.75-.61-.71-.32-1.27-.63-1.77-.99l-.15-.1c-.18-.12-.35-.25-.52-.38-.25-.2-.49-.4-.72-.61-.48-.45-.89-.89-1.25-1.36-.4-.52-.76-1.07-1.06-1.64-.28-.54-.53-1.1-.73-1.67-.24-.66-.4-1.31-.48-1.94l-.02-.15c-.04-.28-.08-.56-.09-.84v-.11c-.02-.24-.03-.49-.03-.73,0-.63.05-1.25.15-1.86.12-.71.29-1.36.51-1.94l.07-.21s.03-.08.04-.12c.02-.04.03-.09.05-.13l.08-.19c.28-.65.58-1.28.91-1.87.33-.58.71-1.17,1.13-1.75.07-.1.15-.2.23-.3-.17-.02-.34-.04-.52-.05l-.52-.05c-.28-.03-.57-.05-.85-.07-.38-.03-.77-.03-1.15-.04h-.11c-.43-.01-.86-.02-1.3-.01-.34,0-.67.02-1.01.03h-.3c-.42.03-.85.07-1.27.11-.44.04-.87.09-1.31.14-.44.06-.87.12-1.31.19l-.16.03c-.37.06-.74.13-1.11.21-.45.1-.91.21-1.36.32-.42.1-.83.22-1.25.34-.36.11-.72.22-1.07.33l-.24.08c-.39.13-.79.27-1.17.42l-.32.12c-.31.12-.62.24-.93.38-.41.18-.82.36-1.22.55-.39.18-.77.37-1.14.57-.32.17-.64.34-.95.52l-.45.26c-.35.2-.69.42-1.02.65-.31.21-.62.43-.91.66l-.12.1c-.26.21-.53.41-.78.63l-.27.23c-.2.17-.4.35-.58.53l-.09.09c-.28.28-.56.57-.83.86-.22.23-.42.48-.62.73l-.16.2c-.19.23-.36.48-.54.72l-.16.22c-.21.29-.42.6-.61.91-.21.34-.41.68-.59,1.04-.19.36-.38.72-.55,1.09,0,0,0,0,0,0-.16.35-.31.69-.46,1.04-.26.6-.52,1.2-.76,1.81-.16.38-.3.77-.44,1.16l-.23.62c-.45,1.19-1.58,1.93-2.79,1.93Z"/>
        </g>
      </g>
    </g>
  </g>
</svg>