<?xml version="1.0" encoding="UTF-8"?><svg id="Layer_1" xmlns="http://www.w3.org/2000/svg" viewBox="0 0 1268.57 380.85"><defs><style>.cls-1{fill:#000;}.cls-1,.cls-2,.cls-3,.cls-4,.cls-5{stroke-width:0px;}.cls-2{fill:none;}.cls-3{fill:#808182;}.cls-4{fill:#474846;}.cls-5{fill:#eb7928;}</style></defs><rect class="cls-2" x="-115.72" y="-309.57" width="1500" height="1000"/><rect class="cls-2" x="-115.72" y="-309.57" width="1500" height="1000"/><polygon class="cls-1" points="1205.18 313.5 1205.18 323.14 1199.75 323.14 1199.75 313.5 1190.03 296.54 1196.31 296.54 1202.56 308.34 1202.64 308.34 1208.84 296.54 1214.9 296.54 1205.18 313.5"/><polygon class="cls-1" points="1182.79 323.15 1177.74 323.15 1165.36 306.03 1165.33 306.03 1165.33 323.15 1159.85 323.15 1159.85 296.54 1164.86 296.54 1177.28 313.66 1177.32 313.66 1177.32 296.54 1182.79 296.54 1182.79 323.15"/><path class="cls-1" d="M1139.41,302.09h-.08l-3.5,10.14h7.09l-3.5-10.14ZM1152.48,323.15h-5.79l-2.54-7.13h-9.6l-2.47,7.13h-5.64l10.22-26.6h5.63l10.18,26.6Z"/><path class="cls-1" d="M1110.94,301.17h-3.54v9.18h3.54c4.24,0,6.17-1.82,6.17-4.7s-1.93-4.47-6.17-4.47M1110.94,314.78h-3.54v8.37h-5.48v-26.6h9.1c7.86,0,11.64,3.08,11.64,8.94s-4.13,9.3-11.72,9.3"/><polygon class="cls-1" points="1092.17 323.15 1086.89 323.15 1086.89 306.56 1086.82 306.56 1079.6 323.15 1075.29 323.15 1068.08 306.56 1068 306.56 1068 323.15 1062.72 323.15 1062.72 296.54 1068.93 296.54 1077.45 316.05 1077.52 316.05 1086.01 296.54 1092.17 296.54 1092.17 323.15"/><path class="cls-1" d="M1041.05,300.86c-4.7,0-7.71,3.23-7.71,8.94s3.01,8.91,7.71,8.91,7.67-3.2,7.67-8.91-3.01-8.94-7.67-8.94M1041,323.61c-7.98,0-13.22-4.97-13.22-13.76s5.35-13.77,13.26-13.77,13.22,4.98,13.22,13.77-5.36,13.76-13.26,13.76"/><path class="cls-1" d="M1012.99,296.08c5.25,0,7.44,1.82,8.79,2.78l-2.12,4.17c-1.12-.81-2.78-2.16-6.32-2.16-4.7,0-8.64,2.73-8.64,8.83s3.43,9.02,8.21,9.02c3.86,0,5.9-1.35,6.83-2.05l1.88,4.13c-1.08.89-3.81,2.81-9.33,2.81-7.4,0-13.15-4.09-13.15-13.69s6.74-13.84,13.84-13.84"/><path class="cls-1" d="M950.4,314.47c.91,3.42,4.09,5.41,8.99,5.4,4.14-.01,6.65-1.44,6.64-4.35-.01-4.32-5.44-4.05-11-5.39-6.14-1.47-13.77-4.29-13.8-13.85-.03-9.23,6.93-13.84,17.07-13.87,9.24-.03,15.84,3.7,18.38,11.76l-10.33,2.81c-1.11-3.29-3.7-5.09-8.22-5.08-4.14.01-5.87,1.63-5.87,4.02.01,3.81,4.34,4.38,10.67,5.65,6.66,1.27,14.03,4.1,14.06,13.85.03,9.3-6.48,13.97-17.53,14-7.88.02-16.8-2.34-19.41-12.15l10.33-2.81Z"/><polygon class="cls-1" points="924 293.52 924 328.66 913.15 328.66 913.15 293.52 899.32 293.52 899.32 283.45 937.82 283.44 937.82 293.52 924 293.52"/><path class="cls-1" d="M883.61,302.31c-1.42-3.75-2.45-6.59-2.51-6.65h-.19c-.06.07-1.1,2.84-2.52,6.59l-3.23,9.04h11.69s-3.23-8.98-3.23-8.98ZM871.59,321.17l-2.72,7.49h-11.43s17.46-45.21,17.46-45.21h12.34s17.48,45.22,17.48,45.22h-11.62s-2.71-7.5-2.71-7.5h-18.79Z"/><polygon class="cls-3" points="845.7 328.66 863.23 283.45 836.56 283.45 819.04 328.66 845.7 328.66"/><polygon class="cls-4" points="812.79 328.66 830.31 283.45 803.65 283.45 786.12 328.66 812.79 328.66"/><polygon class="cls-1" points="779.87 328.66 797.4 283.45 770.74 283.45 753.21 328.66 779.87 328.66"/><polygon class="cls-1" points="731.07 323.15 726.01 323.15 713.63 306.03 713.6 306.03 713.6 323.15 708.12 323.15 708.12 296.54 713.13 296.54 725.55 313.66 725.59 313.66 725.59 296.54 731.07 296.54 731.07 323.15"/><path class="cls-1" d="M687.68,302.09h-.08l-3.51,10.14h7.09l-3.5-10.14ZM700.75,323.15h-5.79l-2.54-7.13h-9.6l-2.47,7.13h-5.64l10.22-26.6h5.63l10.18,26.6Z"/><path class="cls-1" d="M137.07,51.42c-10.93,0-21.55,1.36-31.75,3.84l-25.24,108c20.4-11.86,39.4-17.74,57-17.63,26.68.17,45.74,9.34,57.17,27.48,11.44,18.17,13.58,42.59,6.39,73.32l-19.22,82.23c54.3-19.09,93.37-72.22,93.37-134.82,0-78.66-61.66-142.42-137.73-142.42Z"/><path class="cls-5" d="M136.82,248.66c0,22.98-18.62,41.58-41.58,41.58s-41.57-18.6-41.57-41.58,18.63-41.56,41.57-41.56,41.58,18.6,41.58,41.56Z"/><path class="cls-1" d="M428.04,146.98l-14.3,62.32h-22.24l13.58-59.74c5.15-21.57,4.22-33.86-19.43-33.86-14.52,0-29.04,4.32-30.93,12.51l-18.49,81.08h-22.24l35.84-155.7h22.24l-11.94,51.54c7.72-4.09,21.76-8.2,35.36-8.2,29.96,0,41.89,9.7,32.54,50.04Z"/><path class="cls-1" d="M540.85,206.28c-12.87,3.44-30.44,6.02-41.67,6.02-35.11,0-53.38-13.34-43.08-58.21,10.09-43.36,32.54-57.15,67.44-57.15s48.46,12.08,35.83,61.9h-80.78c-6.56,29.33,3.02,35.58,27.15,35.58,8.43,0,24.58-2.15,34.88-5.17l.24,17.04ZM482.79,142.23h58.53c4.22-23.29-1.64-28.27-20.83-28.27-21.54,0-30.9,6.47-37.7,28.27Z"/><path class="cls-1" d="M597.73,209.3h-22.01l25.05-109.34h22.01l-25.06,109.34ZM632.85,67.18c-2.58,10.35-6.08,12.06-15.91,12.06s-13.12-1.71-10.55-12.06c2.11-9.49,5.61-10.78,15.69-10.78s12.88,1.29,10.77,10.78Z"/><path class="cls-1" d="M734.46,203.89c-14.05,5.17-36.07,8.4-51.76,8.4-37.92,0-52.66-12.7-42.37-57.56,10.3-44.42,31.6-57.79,66.02-57.79,15.23,0,23.65,3.67,29.03,7.34l11.69-50.68h22.02l-34.63,150.3ZM730,127.77c1.89-8.18-9.84-12.92-25.05-12.92-23.88,0-33.73,8.19-40.98,39.46-7.72,33.64-1.39,39.9,22.73,39.9,9.6,0,20.6-1.29,28.79-3.9l14.52-62.53Z"/><path class="cls-1" d="M776.34,154.09c10.29-44.64,31.11-57.15,68.36-57.15s52.45,12.51,42.13,57.15c-10.29,44.86-30.88,58.21-68.58,58.21s-52.21-13.34-41.9-58.21ZM799.53,154.52c-7.52,32.79-1.42,40.53,22.71,40.53s33.47-7.74,40.95-40.53c7.96-34.29,1.65-40.33-22.48-40.33s-33.26,6.04-41.18,40.33Z"/><path class="cls-1" d="M933.42,179.98c-2.33,10.57-1.17,16.59,4.67,24.57l-20.82,9.5c-7.27-8.63-9.62-17.27-5.87-33.22l29.29-127.23h22l-29.27,126.38Z"/><path class="cls-1" d="M986.08,105.14c14.06-4.97,36.05-8.2,51.76-8.2,37.92,0,52.43,12.72,42.12,57.37-10.3,44.65-31.61,57.99-66,57.99-14.98,0-23.65-3.84-28.81-7.75l-10.54,46.15h-22.03l33.49-145.57ZM990.54,181.26c-1.88,8.4,9.6,13.15,24.8,13.15,24.11,0,33.98-8.19,41.22-39.68,7.73-33.63,1.15-39.67-22.94-39.67-9.84,0-20.61,1.29-28.59,3.88l-14.5,62.32Z"/><path class="cls-1" d="M1211.77,146.98l-14.28,62.32h-22.25l13.59-59.74c5.13-21.57,4.21-33.86-19.46-33.86-14.5,0-29.01,4.32-30.88,12.51l-18.5,81.08h-22.25l35.8-155.7h22.27l-11.94,51.54c7.73-4.09,21.77-8.2,35.34-8.2,29.98,0,41.92,9.7,32.55,50.04Z"/></svg>