<svg width="165" height="40" id="Layer_1" data-name="Layer 1" xmlns="http://www.w3.org/2000/svg" viewBox="0 0 435.66 119.83"><defs><style>.cls-1{fill:#240078;}.cls-2,.cls-3{fill:#ff6d22;}.cls-3{font-size:22px;font-family:ArialMT, Arial;letter-spacing:0.03em;}</style></defs><path class="cls-1" d="M430.92,62.78c-3.36-2.86-8.13-4.37-13.35-5.4-4.44-.88-11.73-3.88-12.76-5a4.14,4.14,0,0,1-1-2.83c0-4.24,5.88-6.7,10.69-6.7A13,13,0,0,1,426,49.05l8-5.14c-3.81-6.88-11.07-9.75-18.93-9.75-10.36,0-20.84,5.39-20.84,15.82,0,6.56,3.15,10,7.9,12.19,3.31,1.62,7.4,2.61,11.75,3.61,3.31.74,6.62,1.56,8.91,3.18a6.63,6.63,0,0,1,2.71,5.45c0,5-6.46,7.52-12,7.52-6.42,0-10.39-2.81-14-7.09l-7.68,5.76c5.48,7.57,12.27,10,21.67,10,11.07,0,22.27-4.7,22.27-16.86,0-5.09-1.88-8.52-4.87-10.94Z" transform="translate(-0.12 0)"/><path class="cls-1" d="M157.27,34.16a23.39,23.39,0,0,0-17,7.2V35.54h-9.92V89.21h9.92V62.06c0-12.27,8.75-18,17-18,0-.43,0-10,0-10Z" transform="translate(-0.12 0)"/><path class="cls-1" d="M266.82,14.57H256.9V40.2a24.31,24.31,0,0,0-16.14-6c-16.86,0-28.21,11.93-28.21,28.21,0,16.05,11.81,28.21,26.83,28.21H240c16.86,0,26.83-12.35,26.83-30.62V14.57Zm-44.08,47.8c0-10.06,6.63-17.86,16.94-18,10.32.11,16.95,7.91,16.95,18s-6.63,17.86-16.95,18c-10.31-.11-16.94-7.91-16.94-18Z" transform="translate(-0.12 0)"/><path class="cls-1" d="M388.2,89V35.53H378V65c0,10.06-2.59,15.26-12.91,15.36-10.31-.1-12.91-7.91-12.91-18V35.53H342V62.38c0,17.22,7.32,28.22,24.18,28.22a17.8,17.8,0,0,0,12.1-4.21V89c0,11.48-10.35,18-27.33,13.49-5.06-1.32-5-1.33-5-1.33l-2.54,9.59s0,0,5,1.33c26.69,7.25,39.81-8.66,39.81-23.08Z" transform="translate(-0.12 0)"/><path class="cls-1" d="M338.25,62.37c0-13.46-7.56-23.93-19.45-27.16a23.15,23.15,0,0,0-6.93-1.05h-1.1v0c-15.81.52-26.38,12.26-26.38,28.18s11.51,28.21,26.14,28.21h.59c11.91,0,19-4.71,23.63-12.14l-7.53-6c-3.51,4.65-8.15,7.88-16.4,7.88-8.9,0-15-6.24-16.25-14.64h43.58v-.07c.06-1.06.09-2.15.09-3.26Zm-10.49-5.43H295a.41.41,0,0,1,0-.07,16.9,16.9,0,0,1,32.62,0l.13.07Z" transform="translate(-0.12 0)"/><path class="cls-1" d="M209.68,62.19a28.94,28.94,0,0,0-6.79-18.84v0l-.09-.1-.11-.12a24.82,24.82,0,0,0-19.07-9c-16.85,0-28.21,11.93-28.21,28.21,0,16.05,11.81,28.21,26.84,28.21a24.83,24.83,0,0,0,17.17-6.44l.34-.33v5.4h9.92v-27ZM182.76,80.35c-10.44,0-17.16-7.85-17.16-18s6.72-18,17.16-18,17.15,7.85,17.15,18-6.72,18-17.15,18Z" transform="translate(-0.12 0)"/><polygon class="cls-1" points="270.97 14.57 280.88 14.57 280.88 89.2 270.97 89.2 270.97 14.57 270.97 14.57"/><path class="cls-2" d="M110,13.93C96.57-5.31,62.26-4.52,33.41,15.68S-7.92,67.86,5.55,87.09c7.56,10.8,21.68,15.29,37.72,13.58V51.58c0-24.91,18.24-39.25,35.89-37.39h.17v12h-.14c-.62-.05-1.21-.07-1.8-.07-14.5,0-20.91,12.5-20.91,26.55V98A90.54,90.54,0,0,0,82.18,85.34C111,65.14,123.51,33.17,110,13.93Z" transform="translate(-0.12 0)"/><text class="cls-3" transform="translate(128.75 112.69) scale(0.9 1)">accelerating chemistry</text></svg>