<?xml version="1.0" encoding="utf-8"?>
<!-- Generator: Adobe Illustrator 26.0.2, SVG Export Plug-In . SVG Version: 6.00 Build 0)  -->
<svg version="1.1" id="Ebene_1" xmlns="http://www.w3.org/2000/svg" xmlns:xlink="http://www.w3.org/1999/xlink" x="0px" y="0px"
	 viewBox="0 0 196.16 32.938" style="enable-background:new 0 0 196.16 32.938;" xml:space="preserve">
<style type="text/css">
	.st0{fill:#1E73B9;}
	.st1{fill:#C6133D;}
</style>
<path class="st0" d="M12.742,25.326c0-4.836,3.189-7.255,9.568-7.255c2.051,0,4.103,0.15,6.154,0.449v-2.224
	c0-2.71-2.119-4.065-6.356-4.065c-2.426,0-4.912,0.375-7.457,1.123V9.985c2.545-0.749,5.031-1.123,7.457-1.123
	c7.008,0,10.512,2.441,10.512,7.322v16.262h-2.336l-1.438-2.336c-2.351,1.558-4.912,2.336-7.682,2.336
	C15.55,32.446,12.742,30.073,12.742,25.326z M22.311,21.44c-3.609,0-5.413,1.273-5.413,3.818c0,2.546,1.422,3.818,4.268,3.818
	c2.875,0,5.308-0.764,7.3-2.291V21.89C26.413,21.59,24.362,21.44,22.311,21.44z"/>
<path class="st0" d="M38.209,0.327h4.155v9.658c1.782-0.749,3.691-1.123,5.728-1.123c7.457,0,11.186,3.773,11.186,11.32
	c0,8.176-3.916,12.264-11.747,12.264c-3.384,0-6.491-0.322-9.321-0.966L38.209,0.327L38.209,0.327z M42.364,28.336
	c1.362,0.435,3.017,0.651,4.964,0.651c5.241,0,7.861-2.987,7.861-8.962c0-5.046-2.374-7.569-7.12-7.569
	c-2.156,0-4.058,0.404-5.705,1.213V28.336z"/>
<path class="st0" d="M62.619,20.654c0-7.861,3.743-11.792,11.23-11.792s11.23,3.931,11.23,11.792c0,7.847-3.744,11.77-11.23,11.77
	C66.392,32.424,62.648,28.501,62.619,20.654z M73.849,29.077c4.717,0,7.075-2.837,7.075-8.513c0-5.555-2.358-8.333-7.075-8.333
	s-7.075,2.778-7.075,8.333C66.774,26.24,69.132,29.077,73.849,29.077z"/>
<path class="st0" d="M89.545,32.446V8.862h2.808l0.696,2.965c2.261-1.977,4.724-2.965,7.39-2.965c3.414,0,5.742,1.078,6.985,3.234
	c2.561-2.156,5.158-3.234,7.794-3.234c5.421,0,8.131,2.987,8.131,8.962v14.622h-4.155V17.6c0-3.519-1.482-5.278-4.447-5.278
	c-2.216,0-4.29,1.019-6.222,3.055v17.07h-4.155v-14.78c0-3.563-1.468-5.346-4.402-5.346c-2.336,0-4.425,1.019-6.267,3.055v17.07
	H89.545z"/>
<path class="st0" d="M127.814,25.326c0-4.836,3.189-7.255,9.568-7.255c2.051,0,4.103,0.15,6.154,0.449v-2.224
	c0-2.71-2.119-4.065-6.356-4.065c-2.426,0-4.912,0.375-7.457,1.123V9.985c2.545-0.749,5.031-1.123,7.457-1.123
	c7.008,0,10.512,2.441,10.512,7.322v16.262h-2.336l-1.438-2.336c-2.352,1.558-4.912,2.336-7.682,2.336
	C130.622,32.446,127.814,30.073,127.814,25.326z M137.382,21.44c-3.609,0-5.413,1.273-5.413,3.818c0,2.546,1.422,3.818,4.268,3.818
	c2.875,0,5.308-0.764,7.3-2.291V21.89C141.485,21.59,139.433,21.44,137.382,21.44z"/>
<path class="st0" d="M195.677,31.772c-1.947,0.449-4.043,0.674-6.289,0.674c-8.386,0-12.578-4.08-12.578-12.241
	c0-7.562,4.192-11.343,12.578-11.343c2.246,0,4.342,0.225,6.289,0.674v3.369c-1.947-0.449-4.118-0.674-6.514-0.674
	c-5.466,0-8.198,2.658-8.198,7.974c0,5.915,2.732,8.872,8.198,8.872c2.396,0,4.566-0.225,6.514-0.674V31.772z"/>
<path class="st1" d="M171.896,0.327v1.661c0,1.254-1.016,2.27-2.27,2.27h-1.885V0.327H171.896z"/>
<path class="st0" d="M4.589,25.764V0.338H0.434v25.74c0,4.238,1.977,6.356,5.93,6.356h3.953v-3.369H7.442
	C5.54,29.066,4.589,27.965,4.589,25.764z"/>
<path class="st0" d="M169.638,8.862h-12.854l-0.898-3.818h-2.605V26.09c0,4.238,1.977,6.356,5.93,6.356h3.953v-3.369h-2.875
	c-1.901,0-2.853-1.101-2.853-3.302V12.231h10.306v20.215h4.155V11.12C171.896,9.873,170.885,8.862,169.638,8.862z"/>
</svg>
