<?xml version="1.0" encoding="UTF-8"?><svg id="Layer_1" xmlns="http://www.w3.org/2000/svg" viewBox="0 0 595.28 189.09"><defs><style>.cls-1{fill:#1a1a18;}.cls-1,.cls-2{stroke-width:0px;}.cls-2{fill:#e3000f;}</style></defs><path class="cls-2" d="M219.09,110.65c0,4.03,1.13,7.31,3.4,9.83,2.27,2.52,4.94,3.78,8.02,3.78,2.69,0,5.27-.97,7.73-2.94,2.44-1.95,4.49-5.08,6.13-9.37,1.62-4.28,2.44-8.61,2.44-12.98s-1.09-7.58-3.28-10c-2.2-2.42-4.85-3.65-7.96-3.65-4.05,0-7.54,1.89-10.46,5.65-4.01,5.15-6.01,11.72-6.01,19.68M197.56,134.8l17.18-82h16.01l-5.86,27.26c2.96-2.23,5.73-3.82,8.28-4.77,2.58-.94,5.38-1.41,8.42-1.41,6.28,0,11.32,2.1,15.12,6.32,3.78,4.2,5.67,10.33,5.67,18.38,0,5.42-.9,10.69-2.67,15.8-1.78,5.1-4.14,9.26-7.12,12.46-2.98,3.19-6.09,5.57-9.37,7.12-3.26,1.55-6.7,2.33-10.29,2.33-8.53,0-14.79-3.7-18.78-11.09l-2.08,9.6h-14.51ZM170.02,106.97c-.97.27-2.25.52-3.86.74-8.06.97-13.32,2.41-15.79,4.29-1.76,1.37-2.63,3.21-2.63,5.5,0,1.91.67,3.49,2.02,4.81,1.34,1.3,3.11,1.95,5.31,1.95,2.42,0,4.71-.59,6.85-1.79,2.16-1.18,3.76-2.71,4.81-4.58,1.07-1.87,2-4.79,2.82-8.76l.46-2.16ZM154.73,91.97l-15.69-1.32c1.79-5.27,4.92-9.37,9.39-12.33,4.47-2.96,10.36-4.45,17.73-4.45s13.32,1.55,16.97,4.62c3.66,3.09,5.5,6.85,5.5,11.3,0,1.79-.15,3.7-.48,5.71-.32,2.02-1.43,7.33-3.34,15.92-1.58,7.1-2.37,12.08-2.37,14.93,0,2.54.46,5.34,1.36,8.46h-15.67c-.61-2.16-.99-4.41-1.15-6.72-2.35,2.61-5.06,4.64-8.11,6.07-3.05,1.43-6.15,2.14-9.24,2.14-4.92,0-8.99-1.62-12.2-4.87-3.21-3.24-4.81-7.41-4.81-12.5,0-5.69,1.76-10.25,5.29-13.65,3.53-3.42,9.83-5.48,18.9-6.18,7.65-.65,12.77-1.41,15.35-2.31.67-2.25,1.01-4.05,1.01-5.38,0-1.74-.69-3.17-2.08-4.33-1.37-1.16-3.44-1.74-6.17-1.74-2.86,0-5.13.57-6.8,1.74-1.66,1.15-2.81,2.79-3.4,4.91ZM60.4,134.8l17.18-82h16.84l-14.3,68.26h41.78l-2.86,13.74h-58.64Z"/><path class="cls-1" d="M460.34,131.38v-36.19h5.51v5.14c2.65-3.94,6.49-5.9,11.49-5.9,2.18,0,4.18.4,6.01,1.17,1.82.78,3.2,1.81,4.1,3.08.91,1.27,1.55,2.78,1.91,4.52.22,1.14.34,3.13.34,5.96v22.22h-6.14v-21.99c0-2.5-.23-4.37-.71-5.6-.48-1.23-1.32-2.22-2.53-2.96-1.21-.73-2.64-1.1-4.27-1.1-2.6,0-4.85.83-6.74,2.49-1.89,1.65-2.84,4.8-2.84,9.43v19.75h-6.14ZM421.29,113.29c0,4.63,1.01,8.09,3.03,10.38,2.03,2.3,4.58,3.45,7.66,3.45s5.58-1.15,7.61-3.46c2.02-2.31,3.03-5.83,3.03-10.56,0-4.46-1.02-7.84-3.06-10.13-2.03-2.3-4.57-3.45-7.59-3.45s-5.63,1.14-7.66,3.43c-2.02,2.29-3.03,5.74-3.03,10.36ZM415.01,113.28c0-6.68,1.86-11.63,5.59-14.85,3.1-2.67,6.9-4.01,11.38-4.01,4.96,0,9.03,1.63,12.19,4.88,3.15,3.24,4.73,7.74,4.73,13.47,0,4.65-.7,8.3-2.09,10.96-1.39,2.66-3.43,4.73-6.1,6.21-2.66,1.48-5.58,2.21-8.73,2.21-5.07,0-9.16-1.62-12.28-4.86-3.13-3.24-4.68-7.91-4.68-14ZM397.58,131.38v-36.19h6.14v36.19h-6.14ZM397.58,88.42v-6.97h6.14v6.97h-6.14ZM387.28,125.9l.84,5.42c-1.72.36-3.27.55-4.61.55-2.22,0-3.94-.35-5.17-1.06-1.22-.71-2.08-1.63-2.58-2.78-.5-1.15-.74-3.57-.74-7.25v-20.85h-4.53v-4.74h4.53v-8.95l6.14-3.68v12.63h6.14v4.74h-6.14v21.2c0,1.75.1,2.88.33,3.38.21.5.56.89,1.05,1.2.49.29,1.19.44,2.09.44.67,0,1.57-.08,2.67-.24ZM354.08,113.25c-2.23.91-5.58,1.67-10.04,2.3-2.53.36-4.32.77-5.37,1.22-1.05.45-1.85,1.12-2.42,1.98-.57.87-.86,1.84-.86,2.91,0,1.62.62,2.98,1.86,4.06,1.24,1.08,3.06,1.63,5.44,1.63s4.46-.51,6.31-1.55c1.84-1.02,3.2-2.43,4.06-4.21.66-1.38.99-3.42.99-6.1l.03-2.23ZM354.57,126.85c-2.28,1.94-4.47,3.3-6.58,4.1-2.1.8-4.36,1.2-6.78,1.2-3.97,0-7.03-.96-9.17-2.91-2.14-1.93-3.21-4.4-3.21-7.41,0-1.77.41-3.38,1.21-4.85.81-1.46,1.87-2.63,3.17-3.51,1.31-.88,2.78-1.56,4.42-2.01,1.21-.31,3.03-.62,5.46-.92,4.95-.58,8.61-1.29,10.95-2.1.02-.84.03-1.37.03-1.59,0-2.49-.58-4.24-1.74-5.26-1.57-1.38-3.9-2.07-7-2.07-2.89,0-5.03.51-6.4,1.52-1.38,1.01-2.39,2.8-3.06,5.38l-6-.84c.55-2.57,1.44-4.65,2.7-6.23,1.26-1.58,3.07-2.79,5.44-3.65,2.36-.85,5.11-1.28,8.23-1.28s5.61.36,7.55,1.09c1.93.73,3.36,1.64,4.27,2.74.91,1.1,1.55,2.5,1.92,4.18.2,1.05.3,2.93.3,5.64v8.14c0,5.68.13,9.27.38,10.8.24,1.52.76,2.98,1.5,4.37h-6.42c-.62-1.29-1.01-2.8-1.19-4.53ZM320.63,125.9l.84,5.42c-1.72.36-3.27.55-4.61.55-2.22,0-3.94-.35-5.17-1.06-1.22-.71-2.08-1.63-2.58-2.78-.5-1.15-.74-3.57-.74-7.25v-20.85h-4.53v-4.74h4.53v-8.95l6.14-3.68v12.63h6.14v4.74h-6.14v21.2c0,1.75.1,2.88.33,3.38.21.5.56.89,1.05,1.2.49.29,1.19.44,2.09.44.67,0,1.57-.08,2.67-.24ZM265.76,120.57l6.07-.98c.34,2.43,1.29,4.29,2.85,5.59,1.56,1.29,3.74,1.94,6.53,1.94s4.92-.57,6.29-1.72c1.36-1.14,2.05-2.49,2.05-4.03,0-1.38-.62-2.48-1.84-3.27-.86-.55-2.95-1.23-6.28-2.08-4.49-1.13-7.59-2.1-9.33-2.93-1.73-.84-3.05-1.98-3.94-3.44-.89-1.45-1.35-3.07-1.35-4.83,0-1.62.37-3.1,1.1-4.47.74-1.37,1.74-2.51,3.01-3.42.95-.7,2.25-1.29,3.89-1.78,1.65-.49,3.41-.73,5.29-.73,2.84,0,5.32.41,7.46,1.23,2.15.81,3.73,1.93,4.75,3.32,1.01,1.41,1.72,3.28,2.1,5.63l-6,.84c-.27-1.88-1.06-3.36-2.36-4.42-1.3-1.06-3.14-1.58-5.52-1.58-2.8,0-4.81.46-6.01,1.39-1.2.93-1.8,2.02-1.8,3.27,0,.79.24,1.51.74,2.15.5.65,1.28,1.2,2.35,1.63.62.23,2.41.76,5.4,1.57,4.32,1.15,7.35,2.1,9.07,2.84,1.72.73,3.07,1.81,4.04,3.21.99,1.41,1.48,3.15,1.48,5.24s-.59,3.95-1.79,5.75c-1.2,1.8-2.92,3.2-5.16,4.18-2.25.99-4.8,1.48-7.64,1.48-4.7,0-8.29-.98-10.75-2.92-2.46-1.95-4.03-4.83-4.72-8.66Z"/><path class="cls-2" d="M534.87,117.36c-8.74,9.1-15.26,13.65-19.6,13.65-2.39,0-4.4-1.22-6.04-3.67-1.64-2.45-2.47-5.51-2.47-9.2,0-7.95,2.68-18.97,8.03-33.04l14.25-2.96h.67l-5.6,17.52c-2.31,7.25-3.46,12.41-3.46,15.51,0,1.24.27,2.24.8,3,.55.76,1.22,1.15,2.05,1.15,1.47,0,2.93-.52,4.4-1.57,1.47-1.05,3.8-3.33,6.98-6.81v6.43ZM533.73,60.22c0,8.95-3.31,13.42-9.9,13.42-3.21,0-5.95-.98-8.22-2.91,2.16-3.29,3.84-6.98,5.05-11.09,2.94,1.84,5.32,2.75,7.09,2.75,2.01,0,4.02-.73,5.98-2.18Z"/></svg>