<?xml version="1.0" encoding="UTF-8"?>
<svg id="Layer_1" data-name="Layer 1" xmlns="http://www.w3.org/2000/svg" viewBox="0 0 700.59 189.09">
  <defs>
    <style>
      .cls-1 {
        fill: #e3000f;
      }

      .cls-2 {
        fill: #1a1a18;
      }
    </style>
  </defs>
  <path class="cls-1" d="M236.34,120.02c0,6.38,1.64,11.57,4.93,15.56,3.29,3.99,7.17,5.98,11.63,5.98,3.9,0,7.65-1.54,11.21-4.65,3.54-3.09,6.51-8.04,8.89-14.83,2.35-6.77,3.54-13.63,3.54-20.54s-1.58-12-4.76-15.83c-3.19-3.83-7.04-5.78-11.55-5.78-5.88,0-10.94,2.99-15.17,8.94-5.82,8.15-8.72,18.55-8.72,31.15M205.11,158.24l24.92-129.77h23.23l-8.5,43.14c4.29-3.53,8.31-6.05,12.01-7.55,3.74-1.49,7.8-2.23,12.22-2.23,9.11,0,16.42,3.32,21.94,10,5.48,6.65,8.23,16.35,8.23,29.09,0,8.58-1.31,16.92-3.87,25-2.58,8.07-6.01,14.65-10.33,19.72-4.32,5.05-8.83,8.81-13.59,11.27-4.73,2.45-9.72,3.69-14.93,3.69-12.37,0-21.46-5.86-27.24-17.55l-3.02,15.19h-21.05ZM165.15,114.2c-1.41.43-3.26.82-5.6,1.17-11.69,1.54-19.32,3.81-22.91,6.79-2.55,2.17-3.82,5.08-3.82,8.7,0,3.02.97,5.52,2.93,7.61,1.94,2.06,4.51,3.09,7.7,3.09,3.51,0,6.83-.93,9.94-2.83,3.13-1.87,5.45-4.29,6.98-7.25,1.55-2.96,2.9-7.58,4.09-13.86l.67-3.42h.01ZM142.97,90.46l-22.76-2.09c2.6-8.34,7.14-14.83,13.62-19.51,6.48-4.68,15.03-7.04,25.72-7.04s19.32,2.45,24.62,7.31c5.31,4.89,7.98,10.84,7.98,17.88,0,2.83-.22,5.86-.7,9.04-.46,3.2-2.07,11.6-4.85,25.19-2.29,11.24-3.44,19.12-3.44,23.63,0,4.02.67,8.45,1.97,13.39h-22.73c-.88-3.42-1.44-6.98-1.67-10.63-3.41,4.13-7.34,7.34-11.77,9.61-4.42,2.26-8.92,3.39-13.4,3.39-7.14,0-13.04-2.56-17.7-7.71-4.66-5.13-6.98-11.73-6.98-19.78,0-9,2.55-16.22,7.67-21.6,5.12-5.41,14.26-8.67,27.42-9.78,11.1-1.03,18.53-2.23,22.27-3.66.97-3.56,1.47-6.41,1.47-8.51,0-2.75-1-5.02-3.02-6.85-1.99-1.84-4.99-2.75-8.95-2.75s-7.44.9-9.86,2.75c-2.41,1.82-4.08,4.42-4.93,7.77v-.03ZM6.12,158.24L31.05,28.47h24.43l-20.75,108.03h60.61l-4.15,21.74s-85.07,0-85.07,0Z"/>
  <path class="cls-2" d="M586.33,152.83v-57.27h7.99v8.13c3.84-6.24,9.42-9.34,16.67-9.34,3.16,0,6.06.63,8.72,1.85,2.64,1.23,4.64,2.86,5.95,4.87,1.32,2.01,2.25,4.4,2.77,7.15.32,1.8.49,4.95.49,9.43v35.16h-8.91v-34.8c0-3.96-.33-6.92-1.03-8.86-.7-1.95-1.91-3.51-3.67-4.68-1.76-1.16-3.83-1.74-6.19-1.74-3.77,0-7.04,1.31-9.78,3.94-2.74,2.61-4.12,7.6-4.12,14.92v31.26h-8.91v-.03ZM529.68,124.2c0,7.33,1.47,12.8,4.4,16.43,2.94,3.64,6.64,5.46,11.11,5.46s8.1-1.82,11.04-5.48c2.93-3.66,4.4-9.23,4.4-16.71,0-7.06-1.48-12.41-4.44-16.03-2.94-3.64-6.63-5.46-11.01-5.46s-8.17,1.8-11.11,5.43c-2.93,3.62-4.4,9.08-4.4,16.4v-.03ZM520.57,124.19c0-10.57,2.7-18.41,8.11-23.5,4.5-4.23,10.01-6.35,16.51-6.35,7.2,0,13.1,2.58,17.68,7.72,4.57,5.13,6.86,12.25,6.86,21.32,0,7.36-1.02,13.14-3.03,17.35-2.02,4.21-4.98,7.49-8.85,9.83-3.86,2.34-8.1,3.5-12.66,3.5-7.36,0-13.29-2.56-17.82-7.69-4.54-5.13-6.79-12.52-6.79-22.16v-.02ZM495.28,152.83v-57.27h8.91v57.27h-8.91ZM495.28,84.84v-11.03h8.91v11.03h-8.91ZM480.34,144.16l1.22,8.58c-2.5.57-4.74.87-6.69.87-3.22,0-5.72-.55-7.5-1.68-1.77-1.12-3.02-2.58-3.74-4.4-.73-1.82-1.07-5.65-1.07-11.47v-33h-6.57v-7.5h6.57v-14.16l8.91-5.82v19.99h8.91v7.5h-8.91v33.55c0,2.77.15,4.56.48,5.35.3.79.81,1.41,1.52,1.9.71.46,1.73.7,3.03.7.97,0,2.28-.13,3.87-.38l-.03-.02ZM432.18,124.14c-3.24,1.44-8.1,2.64-14.57,3.64-3.67.57-6.27,1.22-7.79,1.93-1.52.71-2.68,1.77-3.51,3.13-.83,1.38-1.25,2.91-1.25,4.61,0,2.56.9,4.72,2.7,6.43,1.8,1.71,4.44,2.58,7.89,2.58s6.47-.81,9.15-2.45c2.67-1.61,4.64-3.85,5.89-6.66.96-2.18,1.44-5.41,1.44-9.65l.04-3.53v-.02ZM432.89,145.66c-3.31,3.07-6.48,5.22-9.55,6.49-3.05,1.27-6.33,1.9-9.84,1.9-5.76,0-10.2-1.52-13.3-4.61-3.1-3.05-4.66-6.96-4.66-11.73,0-2.8.59-5.35,1.76-7.68,1.18-2.31,2.71-4.16,4.6-5.55,1.9-1.39,4.03-2.47,6.41-3.18,1.76-.49,4.4-.98,7.92-1.46,7.18-.92,12.49-2.04,15.89-3.32.03-1.33.04-2.17.04-2.52,0-3.94-.84-6.71-2.52-8.32-2.28-2.18-5.66-3.28-10.16-3.28-4.19,0-7.3.81-9.28,2.41-2,1.6-3.47,4.43-4.44,8.51l-8.7-1.33c.8-4.07,2.09-7.36,3.92-9.86s4.45-4.42,7.89-5.78c3.42-1.35,7.41-2.03,11.94-2.03s8.14.57,10.95,1.73c2.8,1.16,4.87,2.6,6.19,4.34s2.25,3.96,2.79,6.62c.29,1.66.44,4.64.44,8.93v12.88c0,8.99.19,14.67.55,17.09.35,2.41,1.1,4.72,2.18,6.92h-9.31c-.9-2.04-1.47-4.43-1.73-7.17h.03ZM383.65,144.16l1.22,8.58c-2.5.57-4.74.87-6.69.87-3.22,0-5.72-.55-7.5-1.68-1.77-1.12-3.02-2.58-3.74-4.4-.73-1.82-1.07-5.65-1.07-11.47v-33h-6.57v-7.5h6.57v-14.16l8.91-5.82v19.99h8.91v7.5h-8.91v33.55c0,2.77.15,4.56.48,5.35.3.79.81,1.41,1.52,1.9.71.46,1.73.7,3.03.7.97,0,2.28-.13,3.87-.38l-.03-.02ZM304.05,135.72l8.81-1.55c.49,3.85,1.87,6.79,4.13,8.85,2.26,2.04,5.43,3.07,9.47,3.07s7.14-.9,9.13-2.72c1.97-1.8,2.97-3.94,2.97-6.38,0-2.18-.9-3.92-2.67-5.18-1.25-.87-4.28-1.95-9.11-3.29-6.51-1.79-11.01-3.32-13.54-4.64-2.51-1.33-4.42-3.13-5.72-5.44-1.29-2.29-1.96-4.86-1.96-7.64,0-2.56.54-4.91,1.6-7.07,1.07-2.17,2.52-3.97,4.37-5.41,1.38-1.11,3.26-2.04,5.64-2.82,2.39-.78,4.95-1.16,7.67-1.16,4.12,0,7.72.65,10.82,1.95,3.12,1.28,5.41,3.05,6.89,5.25,1.47,2.23,2.5,5.19,3.05,8.91l-8.7,1.33c-.39-2.98-1.54-5.32-3.42-6.99s-4.56-2.5-8.01-2.5c-4.06,0-6.98.73-8.72,2.2s-2.61,3.2-2.61,5.18c0,1.25.35,2.39,1.07,3.4.73,1.03,1.86,1.9,3.41,2.58.9.36,3.5,1.2,7.83,2.48,6.27,1.82,10.66,3.32,13.16,4.49,2.5,1.16,4.45,2.86,5.86,5.08,1.44,2.23,2.15,4.99,2.15,8.29s-.86,6.25-2.6,9.1-4.24,5.06-7.49,6.62c-3.26,1.57-6.96,2.34-11.08,2.34-6.82,0-12.03-1.55-15.6-4.62-3.57-3.09-5.85-7.64-6.85-13.71h.03Z"/>
  <path class="cls-1" d="M694.45,130.64c-12.68,14.4-22.14,21.6-28.43,21.6-3.47,0-6.38-1.93-8.76-5.81s-3.58-8.72-3.58-14.56c0-12.58,3.89-30.02,11.65-52.29l20.67-4.68h.97l-8.12,27.73c-3.35,11.47-5.02,19.64-5.02,24.55,0,1.96.39,3.54,1.16,4.75.8,1.2,1.77,1.82,2.97,1.82,2.13,0,4.25-.82,6.38-2.48,2.13-1.66,5.51-5.27,10.13-10.78v10.18-.02ZM692.8,40.22c0,14.16-4.8,21.24-14.36,21.24-4.66,0-8.63-1.55-11.92-4.61,3.13-5.21,5.57-11.05,7.33-17.55,4.27,2.91,7.72,4.35,10.29,4.35,2.92,0,5.83-1.16,8.68-3.45v.02Z"/>
</svg>