<?xml version="1.0" encoding="UTF-8"?><svg id="Layer_1" xmlns="http://www.w3.org/2000/svg" viewBox="0 0 172.66 51.86"><defs><style>.cls-1{fill:#297ec1;}.cls-1,.cls-2,.cls-3{stroke-width:0px;}.cls-2{fill:#2b7ec2;}.cls-3{fill:#2f3f8d;}</style></defs><path class="cls-2" d="M92.32,18.38v-7.8h1.11v6.83h4.22v.97h-5.34.01Z"/><path class="cls-2" d="M100.51,18.45c-.44,0-.82-.07-1.15-.22s-.58-.35-.76-.62c-.18-.26-.27-.56-.27-.9s.08-.61.23-.87.4-.47.75-.62.81-.23,1.4-.23h1.87v.77h-1.83c-.53,0-.9.09-1.08.27-.19.18-.28.39-.28.65,0,.29.11.52.35.7.23.17.55.26.96.26s.75-.09,1.05-.27.52-.44.65-.78l.21.74c-.14.35-.39.63-.75.83s-.81.31-1.35.31v-.02ZM102.44,18.38v-1.25l-.06-.23v-2.13c0-.45-.13-.8-.4-1.05-.26-.25-.66-.37-1.19-.37-.35,0-.69.06-1.03.17-.33.12-.62.27-.85.46l-.45-.8c.3-.25.67-.43,1.1-.56s.87-.19,1.34-.19c.81,0,1.43.2,1.87.59.44.39.66,1,.66,1.81v3.57h-1.01l.02-.02Z"/><path class="cls-2" d="M105.44,18.38v-8.27h1.07v3.93l-.11,1.37.07,1.37v1.59h-1.03ZM108.57,18.45c-.51,0-.96-.11-1.36-.34s-.72-.56-.96-1.01-.35-1-.35-1.67.12-1.23.36-1.67c.24-.45.56-.78.97-1,.4-.22.85-.33,1.34-.33.58,0,1.09.13,1.54.38.45.25.8.6,1.06,1.05.26.45.39.97.39,1.58s-.13,1.13-.39,1.58-.61.81-1.06,1.06-.96.38-1.54.38h0ZM108.48,17.51c.38,0,.72-.09,1.02-.26.3-.17.54-.41.71-.73.17-.32.26-.68.26-1.1s-.09-.79-.26-1.1-.41-.55-.71-.72c-.3-.17-.64-.26-1.02-.26s-.71.09-1.01.26-.54.41-.71.72-.26.67-.26,1.1.09.78.26,1.1c.17.32.41.56.71.73.3.17.64.26,1.01.26Z"/><path class="cls-2" d="M115.57,18.45c-.59,0-1.11-.13-1.58-.39-.46-.26-.83-.62-1.1-1.07-.27-.46-.4-.98-.4-1.55s.13-1.1.4-1.55.63-.8,1.09-1.06.99-.39,1.58-.39,1.11.13,1.58.38c.46.26.83.61,1.09,1.06.26.45.4.97.4,1.56s-.13,1.11-.4,1.56c-.26.45-.63.81-1.09,1.07-.46.26-.99.39-1.58.39h.01ZM115.57,17.51c.38,0,.72-.09,1.02-.26.3-.17.54-.41.71-.73.17-.32.26-.68.26-1.1s-.09-.79-.26-1.1-.41-.55-.71-.72c-.3-.17-.64-.26-1.02-.26s-.72.09-1.01.26c-.3.17-.53.41-.71.72s-.27.67-.27,1.1.09.78.27,1.1c.18.32.42.56.71.73.3.17.64.26,1.01.26Z"/><path class="cls-2" d="M120.11,18.38v-5.91h1.03v1.6l-.1-.4c.16-.41.44-.72.82-.94s.86-.32,1.43-.32v1.04s-.09-.01-.13-.01h-.12c-.57,0-1.03.17-1.36.51s-.5.84-.5,1.48v2.94h-1.07Z"/><path class="cls-2" d="M125.9,18.45c-.44,0-.82-.07-1.15-.22s-.58-.35-.76-.62c-.18-.26-.27-.56-.27-.9s.08-.61.23-.87.4-.47.75-.62.81-.23,1.4-.23h1.87v.77h-1.83c-.53,0-.9.09-1.08.27-.19.18-.28.39-.28.65,0,.29.11.52.35.7.23.17.55.26.96.26s.75-.09,1.05-.27.52-.44.65-.78l.21.74c-.14.35-.39.63-.75.83s-.81.31-1.35.31v-.02ZM127.84,18.38v-1.25l-.06-.23v-2.13c0-.45-.13-.8-.4-1.05-.26-.25-.66-.37-1.19-.37-.35,0-.69.06-1.03.17-.33.12-.62.27-.85.46l-.45-.8c.3-.25.67-.43,1.1-.56s.87-.19,1.34-.19c.81,0,1.43.2,1.87.59.44.39.66,1,.66,1.81v3.57h-1.01l.02-.02Z"/><path class="cls-2" d="M129.99,13.35v-.88h3.77v.88h-3.77ZM132.86,18.45c-.59,0-1.05-.16-1.38-.48s-.49-.78-.49-1.37v-5.42h1.07v5.37c0,.32.08.56.24.74s.39.26.69.26c.33,0,.61-.09.84-.28l.33.77c-.16.14-.36.25-.58.31-.23.07-.46.1-.71.1h0Z"/><path class="cls-2" d="M137.77,18.45c-.59,0-1.11-.13-1.58-.39-.46-.26-.83-.62-1.1-1.07-.27-.46-.4-.98-.4-1.55s.13-1.1.4-1.55.63-.8,1.09-1.06c.46-.26.99-.39,1.58-.39s1.11.13,1.58.38c.46.26.83.61,1.09,1.06.26.45.4.97.4,1.56s-.13,1.11-.4,1.56c-.26.45-.63.81-1.09,1.07-.46.26-.99.39-1.58.39h.01ZM137.77,17.51c.38,0,.72-.09,1.02-.26s.54-.41.71-.73c.17-.32.26-.68.26-1.1s-.09-.79-.26-1.1-.41-.55-.71-.72-.64-.26-1.02-.26-.72.09-1.01.26c-.3.17-.53.41-.71.72s-.27.67-.27,1.1.09.78.27,1.1c.18.32.42.56.71.73.3.17.64.26,1.01.26Z"/><path class="cls-2" d="M142.32,18.38v-5.91h1.03v1.6l-.1-.4c.16-.41.44-.72.82-.94s.86-.32,1.43-.32v1.04s-.09-.01-.13-.01h-.12c-.57,0-1.03.17-1.36.51s-.5.84-.5,1.48v2.94h-1.07,0Z"/><path class="cls-2" d="M147.31,20.61c-.28,0-.56-.05-.82-.14s-.5-.23-.69-.41l.46-.8c.15.14.31.25.49.32.18.07.37.11.57.11.26,0,.48-.07.65-.2s.33-.37.48-.71l.37-.81.11-.13,2.32-5.36h1.05l-2.86,6.5c-.17.42-.36.74-.57.98s-.44.41-.7.51c-.25.1-.53.15-.84.15h-.02ZM148.72,18.57l-2.7-6.09h1.11l2.3,5.26-.71.84h0Z"/><path class="cls-2" d="M92.32,31.65v-7.8h1.11v7.8h-1.11Z"/><path class="cls-2" d="M98.77,25.69c.48,0,.91.09,1.28.28.37.19.66.47.86.85s.31.86.31,1.44v3.4h-1.07v-3.28c0-.57-.14-1-.42-1.29s-.67-.43-1.18-.43c-.38,0-.71.07-.99.22s-.5.37-.65.66c-.15.29-.23.65-.23,1.08v3.04h-1.07v-5.91h1.03v1.59l-.17-.42c.19-.39.49-.69.89-.9s.87-.32,1.4-.32h.01Z"/><path class="cls-2" d="M104.9,31.72c-.49,0-.96-.07-1.4-.2-.44-.13-.79-.3-1.04-.49l.45-.85c.25.17.56.32.94.43.37.12.75.18,1.14.18.5,0,.86-.07,1.08-.21s.33-.34.33-.59c0-.19-.07-.33-.2-.43s-.31-.18-.53-.23-.46-.1-.73-.14c-.27-.04-.53-.09-.8-.16-.27-.06-.51-.15-.74-.27-.22-.12-.4-.27-.53-.48s-.2-.48-.2-.82.1-.67.3-.94c.2-.27.48-.47.85-.62.37-.14.8-.22,1.31-.22.39,0,.78.05,1.18.14s.72.22.97.4l-.46.85c-.27-.18-.55-.3-.84-.37-.29-.07-.58-.1-.87-.1-.47,0-.82.08-1.05.23s-.35.35-.35.58c0,.2.07.35.21.46.14.11.32.19.53.25.22.06.46.11.73.15.27.04.53.09.8.16s.51.15.73.26.4.27.53.47c.14.2.21.47.21.8,0,.36-.1.67-.31.92-.21.26-.5.46-.88.61-.38.15-.83.22-1.36.22h0Z"/><path class="cls-2" d="M107.94,26.63v-.88h3.77v.88h-3.77ZM110.81,31.72c-.59,0-1.05-.16-1.38-.48-.33-.32-.49-.78-.49-1.37v-5.42h1.07v5.37c0,.32.08.56.24.74s.39.26.69.26c.33,0,.61-.09.84-.28l.33.77c-.16.14-.36.25-.58.31-.23.07-.46.1-.71.1h-.01Z"/><path class="cls-2" d="M113.4,31.65v-5.91h1.03v1.6l-.1-.4c.16-.41.44-.72.82-.94s.86-.32,1.43-.32v1.04s-.09-.01-.13-.01h-.12c-.57,0-1.03.17-1.36.51s-.5.84-.5,1.48v2.94h-1.07Z"/><path class="cls-2" d="M120.45,31.72c-.51,0-.95-.09-1.33-.28-.38-.19-.68-.47-.89-.85s-.32-.86-.32-1.44v-3.4h1.07v3.28c0,.58.14,1.01.42,1.3.28.29.67.43,1.18.43.37,0,.69-.08.97-.23s.49-.37.64-.67.22-.65.22-1.06v-3.05h1.07v5.91h-1.01v-1.59l.17.42c-.19.39-.48.7-.87.91s-.82.32-1.3.32h-.02Z"/><path class="cls-2" d="M132.89,25.69c.48,0,.89.09,1.26.28.36.19.65.47.85.85.2.38.31.86.31,1.44v3.4h-1.07v-3.28c0-.57-.13-1-.4-1.29s-.64-.43-1.13-.43c-.36,0-.67.07-.94.22s-.47.37-.62.66c-.15.29-.22.65-.22,1.08v3.04h-1.07v-3.28c0-.57-.13-1-.4-1.29-.26-.29-.64-.43-1.13-.43-.35,0-.66.07-.92.22-.27.15-.48.37-.62.66s-.22.65-.22,1.08v3.04h-1.07v-5.91h1.03v1.57l-.17-.4c.19-.39.47-.69.86-.9s.84-.32,1.35-.32c.56,0,1.05.14,1.46.42.41.28.68.7.8,1.26l-.43-.18c.18-.45.49-.82.94-1.09s.97-.41,1.56-.41h0Z"/><path class="cls-2" d="M139.91,31.72c-.63,0-1.19-.13-1.67-.39s-.85-.62-1.11-1.07c-.26-.45-.4-.97-.4-1.56s.13-1.11.38-1.56.61-.81,1.06-1.06c.45-.26.96-.38,1.52-.38s1.08.13,1.52.38.78.61,1.03,1.06c.25.46.37.99.37,1.6v.16c0,.06,0,.12-.02.17h-5.03v-.77h4.47l-.43.27c0-.38-.07-.72-.23-1.01-.16-.3-.39-.53-.67-.7-.29-.17-.62-.25-1-.25s-.7.08-.99.25c-.29.17-.52.4-.68.7-.16.3-.25.64-.25,1.03v.18c0,.39.09.74.27,1.05.18.31.44.55.76.72s.7.26,1.13.26c.35,0,.67-.06.95-.18s.54-.3.75-.53l.59.69c-.27.31-.6.55-1,.71s-.84.24-1.33.24h0Z"/><path class="cls-2" d="M147.26,25.69c.48,0,.91.09,1.28.28s.66.47.86.85.31.86.31,1.44v3.4h-1.07v-3.28c0-.57-.14-1-.42-1.29s-.67-.43-1.18-.43c-.38,0-.71.07-.99.22s-.5.37-.65.66c-.15.29-.23.65-.23,1.08v3.04h-1.07v-5.91h1.03v1.59l-.17-.42c.19-.39.49-.69.89-.9s.87-.32,1.4-.32h.01Z"/><path class="cls-2" d="M150.84,26.63v-.88h3.77v.88h-3.77ZM153.72,31.72c-.59,0-1.05-.16-1.38-.48s-.49-.78-.49-1.37v-5.42h1.07v5.37c0,.32.08.56.24.74s.39.26.69.26c.33,0,.61-.09.84-.28l.33.77c-.16.14-.36.25-.58.31-.23.07-.46.1-.71.1h0Z"/><path class="cls-2" d="M92.32,44.19v-7.8h.91l3.5,5.89h-.49l3.45-5.89h.91v7.8h-1.06v-6.12h.25l-3.08,5.17h-.51l-3.1-5.17h.28v6.12h-1.07,0Z"/><path class="cls-2" d="M104.53,44.25c-.44,0-.82-.07-1.15-.22s-.58-.35-.76-.62c-.18-.26-.27-.56-.27-.9s.08-.61.23-.87.4-.47.75-.62.81-.23,1.4-.23h1.87v.77h-1.83c-.53,0-.9.09-1.08.27-.19.18-.28.39-.28.65,0,.29.11.52.35.7.23.17.55.26.96.26s.75-.09,1.05-.27.52-.44.65-.78l.21.74c-.14.35-.39.63-.75.83s-.81.31-1.35.31v-.02ZM106.47,44.19v-1.25l-.06-.23v-2.13c0-.45-.13-.8-.4-1.05-.26-.25-.66-.37-1.19-.37-.35,0-.69.06-1.03.17-.33.12-.62.27-.85.46l-.45-.8c.3-.25.67-.43,1.1-.56s.87-.19,1.34-.19c.81,0,1.43.2,1.87.59s.66,1,.66,1.81v3.57h-1.01l.02-.02Z"/><path class="cls-2" d="M112.62,38.23c.48,0,.91.09,1.28.28.37.19.66.47.86.85s.31.86.31,1.44v3.4h-1.07v-3.28c0-.57-.14-1-.42-1.29s-.67-.43-1.18-.43c-.38,0-.71.07-.99.22s-.5.37-.65.66-.23.65-.23,1.08v3.04h-1.07v-5.91h1.03v1.59l-.17-.42c.19-.39.49-.69.89-.9s.87-.32,1.4-.32h.01Z"/><path class="cls-2" d="M119.54,44.25c-.51,0-.95-.09-1.33-.28-.38-.19-.68-.47-.89-.85s-.32-.86-.32-1.44v-3.4h1.07v3.28c0,.58.14,1.01.42,1.3s.67.43,1.18.43c.37,0,.69-.08.97-.23s.49-.37.64-.67.22-.65.22-1.06v-3.05h1.07v5.91h-1.01v-1.59l.17.42c-.19.39-.48.7-.87.91s-.82.32-1.3.32h-.02Z"/><path class="cls-2" d="M123.75,39.16v-.88h3.77v.88h-3.77ZM124.75,44.19v-6.43c0-.58.17-1.04.51-1.39.34-.35.82-.52,1.44-.52.23,0,.45.03.66.08.21.06.39.14.54.26l-.32.81c-.11-.09-.24-.16-.38-.21s-.29-.07-.45-.07c-.31,0-.55.09-.71.26s-.24.43-.24.77v.79l.02.49v5.14h-1.07v.02Z"/><path class="cls-2" d="M130.14,44.25c-.44,0-.82-.07-1.15-.22s-.58-.35-.76-.62c-.18-.26-.27-.56-.27-.9s.08-.61.23-.87.4-.47.75-.62.81-.23,1.4-.23h1.87v.77h-1.83c-.53,0-.9.09-1.08.27-.19.18-.28.39-.28.65,0,.29.11.52.35.7.23.17.55.26.96.26s.75-.09,1.05-.27.52-.44.65-.78l.21.74c-.14.35-.39.63-.75.83s-.81.31-1.35.31v-.02ZM132.08,44.19v-1.25l-.06-.23v-2.13c0-.45-.13-.8-.4-1.05-.26-.25-.66-.37-1.19-.37-.35,0-.69.06-1.03.17-.33.12-.62.27-.85.46l-.45-.8c.3-.25.67-.43,1.1-.56s.87-.19,1.34-.19c.81,0,1.43.2,1.87.59s.66,1,.66,1.81v3.57h-1.01l.02-.02Z"/><path class="cls-2" d="M137.65,44.25c-.6,0-1.14-.13-1.61-.39s-.84-.62-1.11-1.07-.4-.97-.4-1.56.13-1.11.4-1.56.64-.81,1.11-1.06c.47-.26,1.01-.38,1.61-.38.53,0,1.01.11,1.43.32s.74.53.98.94l-.81.52c-.19-.29-.43-.5-.71-.64-.28-.14-.58-.21-.9-.21-.39,0-.73.09-1.04.26-.3.17-.55.41-.72.72s-.27.67-.27,1.1.09.79.27,1.1c.18.31.42.55.72.72s.65.26,1.04.26c.32,0,.62-.07.9-.21s.51-.35.71-.64l.81.51c-.23.41-.56.72-.98.94-.42.22-.9.33-1.43.33Z"/><path class="cls-2" d="M140.67,39.16v-.88h3.77v.88h-3.77ZM143.55,44.25c-.59,0-1.05-.16-1.38-.48s-.49-.78-.49-1.37v-5.42h1.07v5.37c0,.32.08.56.24.74s.39.26.69.26c.33,0,.61-.09.84-.28l.33.77c-.16.14-.36.25-.58.31-.23.07-.46.1-.71.1h0Z"/><path class="cls-2" d="M148.62,44.25c-.51,0-.95-.09-1.33-.28s-.68-.47-.89-.85-.32-.86-.32-1.44v-3.4h1.07v3.28c0,.58.14,1.01.42,1.3s.67.43,1.18.43c.37,0,.69-.08.97-.23s.49-.37.64-.67.22-.65.22-1.06v-3.05h1.07v5.91h-1.01v-1.59l.17.42c-.19.39-.48.7-.87.91s-.82.32-1.3.32h-.02Z"/><path class="cls-2" d="M153.67,44.19v-5.91h1.03v1.6l-.1-.4c.16-.41.44-.72.82-.94s.86-.32,1.43-.32v1.04s-.09,0-.13,0h-.12c-.57,0-1.03.17-1.36.51s-.5.84-.5,1.48v2.94h-1.07,0Z"/><path class="cls-2" d="M160.74,44.25c-.63,0-1.19-.13-1.67-.39s-.85-.62-1.11-1.07-.4-.97-.4-1.56.13-1.11.38-1.56.61-.81,1.06-1.06c.45-.26.96-.38,1.52-.38s1.08.13,1.52.38.78.61,1.03,1.06c.25.46.37.99.37,1.6v.16c0,.06,0,.12-.02.17h-5.03v-.77h4.47l-.43.27c0-.38-.07-.72-.23-1.01-.16-.3-.39-.53-.67-.7-.29-.17-.62-.25-1-.25s-.7.08-.99.25c-.29.17-.52.4-.68.7-.16.3-.25.64-.25,1.03v.18c0,.39.09.74.27,1.05.18.31.44.55.76.72s.7.26,1.13.26c.35,0,.67-.06.95-.18s.54-.3.75-.53l.59.69c-.27.31-.6.55-1,.71s-.84.24-1.33.24h0Z"/><path class="cls-2" d="M164.93,44.19v-5.91h1.03v1.6l-.1-.4c.16-.41.44-.72.82-.94s.86-.32,1.43-.32v1.04s-.09,0-.13,0h-.12c-.57,0-1.03.17-1.36.51s-.5.84-.5,1.48v2.94h-1.07,0Z"/><path class="cls-2" d="M38.25,33.01c1.48,2.18,4.23,2.33,4.62,2.34l5.39-.03-.06,1.35c0,.15-.05.47-.28.77-.43.55-1.13.54-1.21.54h-4.83c-.73-.09-1.9-.31-3.15-1-.51-.28-2.53-1.46-3.61-3.91-1.05-2.38-1.12-5.76.95-8.34,2.35-2.93,5.93-2.93,6.71-2.91.8.02,3.9.12,5.68,2.52,1.1,1.49,1.91,4.17.61,5.65-.59.67-1.45.89-2.07.96h-9.53c.09.55.29,1.3.8,2.05ZM45.63,28.48c.3-.03.92-.13,1.19-.59.46-.75-.35-1.94-.93-2.5-1.15-1.11-2.73-1.08-3.39-1.07-.6.01-2.09.04-3.41,1.17-1.29,1.11-1.59,2.56-1.66,2.99h8.2Z"/><path class="cls-3" d="M16.92,15.27c-.09,0-.17-.05-.2-.13-.8-1.92-2.64-3.17-4.6-3.12-2.57.07-4.6,2.35-4.64,4.65-.04,2.02,1.47,3.37,1.59,3.47,1.01.88,2.11,1.06,2.56,1.11,0,0,.02,0,.03,0h2.37c.12,0,.56.01.95.33.38.31.48.71.51.83l.06,1.38c0,.12-.09.23-.22.23h-4.02s-.03,0-.04,0c-3.95-.55-6.83-3.96-6.72-7.74.11-3.79,3.19-6.63,6.43-7.2.33-.06,3.91-.62,6.55,2,1.8,1.79,2.15,3.99,2.2,4.65-.32-.14-.73-.28-1.23-.37-.59-.11-1.19-.13-1.59-.1Z"/><path class="cls-2" d="M16.96,16.82c1.04-.28,2.1-.13,2.49.46.08.12.21.5.23.77l.09,3.31h5.65c.8,0,1.61.11,2.35.42,2.91,1.21,4.92,3.99,5.08,7.14.21,4.07-2.74,7.43-6.16,8.32-3.32.86-6.05-.87-6.38-1.08-1.01-.66-1.73-1.46-2.23-2.21-.76-1.13-1.12-2.49-1.12-3.85v-13.28ZM20.11,24.59c-.31.32-.36.7-.37.82v4.07c0,1.49.58,2.97,1.72,3.92,1.05.86,2.37,1.33,3.73,1.24,2.82-.18,5.18-2.74,5-5.58-.12-1.91-1.37-3.63-3.2-4.47-.53-.25-1.12-.35-1.71-.35h-4.58c-.12.03-.36.12-.58.34h0Z"/><circle class="cls-2" cx="53.25" cy="17.91" r="1.91"/><path class="cls-1" d="M54.59,22.13h-1.25c-.09,0-.62-.05-1.07.34-.42.36-.48.83-.49.94v14.83h1.41c.09,0,.64-.02,1.05-.47.3-.34.35-.72.36-.85v-14.79"/><path class="cls-1" d="M87.32,38.56c0,.41-.09,2.4-1.7,4.01-1.54,1.54-3.41,1.68-3.85,1.7h-3.69c-.08,0-.58.02-.97-.39-.38-.4-.35-.89-.34-.97v-1.23h4.32c.9.04,1.49-.25,1.78-.42,1.31-.79,1.94-2.65,1.51-4.65-.82.39-2.38.99-4.39.9-1.01-.04-3.69-.16-5.61-2.33-1.94-2.19-1.73-4.91-1.68-5.46,0-1.27.22-3.65,1.91-5.47,3.33-3.59,10.42-2.89,12.25.06.29.47.41.92.46,1.22v13.02ZM84.57,32.99c-.01-2.29-.02-4.58-.03-6.87-.05-.16-.14-.39-.31-.63-.93-1.3-3.07-1.14-3.71-1.09-.69.06-2.46.2-3.71,1.51-1.91,2-1.87,5.9.33,7.84,2.18,1.93,5.94,1.62,7.1,0,.18-.26.29-.52.35-.76Z"/><path class="cls-1" d="M57.4,38.23v-12.48c0-.3.04-.73.23-1.19.94-2.23,4.55-2.68,6.5-2.6,1.22.05,3.47.15,5.21,1.94,1.35,1.39,1.66,3.05,1.75,3.76v9.15c0,.13-.02.52-.29.87-.42.54-1.08.54-1.17.54h-1.33v-9.74c-.08-.72-.35-1.77-1.17-2.58-1.94-1.91-5.92-1.37-6.67.19-.13.28-.15.56-.13.77-.03,3.27-.06,6.55-.09,9.82.02.08,0,.68-.33,1-.52.52-1.13.55-1.16.54h-1.36Z"/></svg>