<svg id="Layer_1" data-name="Layer 1" xmlns="http://www.w3.org/2000/svg" viewBox="0 0 297.74 61.95"><defs><style>.cls-1{fill:#ef3e42;}.cls-2{fill:#717073;}</style></defs><path class="cls-1" d="M281.89,284.9a2.56,2.56,0,1,1-2.15-2.92A2.57,2.57,0,0,1,281.89,284.9Z" transform="translate(-249.16 -260.84)"/><path class="cls-1" d="M281.66,278a2.17,2.17,0,1,1-1.82-2.49A2.18,2.18,0,0,1,281.66,278Z" transform="translate(-249.16 -260.84)"/><path class="cls-1" d="M279.32,271.77a1.85,1.85,0,1,1-1.55-2.12A1.85,1.85,0,0,1,279.32,271.77Z" transform="translate(-249.16 -260.84)"/><path class="cls-1" d="M275.87,266.68a1.57,1.57,0,1,1-1.32-1.79A1.57,1.57,0,0,1,275.87,266.68Z" transform="translate(-249.16 -260.84)"/><path class="cls-1" d="M271.24,262.39a1.34,1.34,0,1,1-1.13-1.54A1.34,1.34,0,0,1,271.24,262.39Z" transform="translate(-249.16 -260.84)"/><path class="cls-1" d="M273,291.41a2.94,2.94,0,1,1,2.47,3.37A3,3,0,0,1,273,291.41Z" transform="translate(-249.16 -260.84)"/><path class="cls-1" d="M269.63,298.73a2.55,2.55,0,1,1,2.14,2.92A2.57,2.57,0,0,1,269.63,298.73Z" transform="translate(-249.16 -260.84)"/><path class="cls-1" d="M269.85,305.59a2.17,2.17,0,1,1,1.82,2.49A2.18,2.18,0,0,1,269.85,305.59Z" transform="translate(-249.16 -260.84)"/><path class="cls-1" d="M272.19,311.86a1.85,1.85,0,1,1,1.55,2.11A1.85,1.85,0,0,1,272.19,311.86Z" transform="translate(-249.16 -260.84)"/><path class="cls-1" d="M275.64,317a1.57,1.57,0,1,1,1.32,1.79A1.57,1.57,0,0,1,275.64,317Z" transform="translate(-249.16 -260.84)"/><path class="cls-1" d="M280.46,321.24a1.34,1.34,0,1,1,2.65.4,1.34,1.34,0,1,1-2.65-.4Z" transform="translate(-249.16 -260.84)"/><path class="cls-1" d="M291.38,284.9a2.55,2.55,0,1,1-2.14-2.92A2.56,2.56,0,0,1,291.38,284.9Z" transform="translate(-249.16 -260.84)"/><path class="cls-1" d="M291.16,278a2.17,2.17,0,1,1-1.82-2.49A2.18,2.18,0,0,1,291.16,278Z" transform="translate(-249.16 -260.84)"/><path class="cls-1" d="M288.82,271.77a1.85,1.85,0,1,1-1.55-2.12A1.85,1.85,0,0,1,288.82,271.77Z" transform="translate(-249.16 -260.84)"/><path class="cls-1" d="M285.37,266.68a1.57,1.57,0,1,1-1.32-1.79A1.57,1.57,0,0,1,285.37,266.68Z" transform="translate(-249.16 -260.84)"/><path class="cls-1" d="M281,262.39a1.34,1.34,0,1,1-1.13-1.54A1.35,1.35,0,0,1,281,262.39Z" transform="translate(-249.16 -260.84)"/><path class="cls-1" d="M282.47,291.41a2.95,2.95,0,1,1,2.48,3.37A3,3,0,0,1,282.47,291.41Z" transform="translate(-249.16 -260.84)"/><path class="cls-1" d="M279.12,298.73a2.55,2.55,0,1,1,2.15,2.92A2.57,2.57,0,0,1,279.12,298.73Z" transform="translate(-249.16 -260.84)"/><path class="cls-1" d="M279.35,305.59a2.17,2.17,0,1,1,1.82,2.49A2.17,2.17,0,0,1,279.35,305.59Z" transform="translate(-249.16 -260.84)"/><path class="cls-1" d="M281.69,311.86a1.85,1.85,0,1,1,1.55,2.11A1.85,1.85,0,0,1,281.69,311.86Z" transform="translate(-249.16 -260.84)"/><path class="cls-1" d="M285.14,317a1.57,1.57,0,1,1,1.31,1.79A1.58,1.58,0,0,1,285.14,317Z" transform="translate(-249.16 -260.84)"/><path class="cls-1" d="M290.16,321.24a1.34,1.34,0,0,1,2.66.4,1.34,1.34,0,1,1-2.66-.4Z" transform="translate(-249.16 -260.84)"/><path class="cls-1" d="M262.87,284.9a2.55,2.55,0,1,1-2.15-2.92A2.56,2.56,0,0,1,262.87,284.9Z" transform="translate(-249.16 -260.84)"/><path class="cls-1" d="M262.65,278a2.17,2.17,0,1,1-1.83-2.49A2.19,2.19,0,0,1,262.65,278Z" transform="translate(-249.16 -260.84)"/><path class="cls-1" d="M260.31,271.77a1.85,1.85,0,1,1-1.55-2.12A1.86,1.86,0,0,1,260.31,271.77Z" transform="translate(-249.16 -260.84)"/><path class="cls-1" d="M256.85,266.68a1.57,1.57,0,1,1-3.1-.46,1.57,1.57,0,1,1,3.1.46Z" transform="translate(-249.16 -260.84)"/><path class="cls-1" d="M251.83,262.39a1.34,1.34,0,1,1-1.13-1.54A1.35,1.35,0,0,1,251.83,262.39Z" transform="translate(-249.16 -260.84)"/><path class="cls-1" d="M254,291.41a2.94,2.94,0,1,1,2.47,3.37A3,3,0,0,1,254,291.41Z" transform="translate(-249.16 -260.84)"/><path class="cls-1" d="M250.61,298.73a2.55,2.55,0,1,1,2.14,2.92A2.57,2.57,0,0,1,250.61,298.73Z" transform="translate(-249.16 -260.84)"/><path class="cls-1" d="M250.83,305.59a2.17,2.17,0,1,1,1.82,2.49A2.18,2.18,0,0,1,250.83,305.59Z" transform="translate(-249.16 -260.84)"/><path class="cls-1" d="M253.17,311.86a1.85,1.85,0,1,1,1.55,2.11A1.85,1.85,0,0,1,253.17,311.86Z" transform="translate(-249.16 -260.84)"/><path class="cls-1" d="M256.62,317a1.57,1.57,0,1,1,3.1.46,1.57,1.57,0,1,1-3.1-.46Z" transform="translate(-249.16 -260.84)"/><path class="cls-1" d="M261,321.24a1.34,1.34,0,0,1,2.66.4,1.34,1.34,0,1,1-2.66-.4Z" transform="translate(-249.16 -260.84)"/><path class="cls-1" d="M272.37,284.9a2.56,2.56,0,1,1-2.15-2.92A2.57,2.57,0,0,1,272.37,284.9Z" transform="translate(-249.16 -260.84)"/><path class="cls-1" d="M272.14,278a2.17,2.17,0,1,1-1.82-2.49A2.18,2.18,0,0,1,272.14,278Z" transform="translate(-249.16 -260.84)"/><path class="cls-1" d="M269.8,271.76a1.84,1.84,0,1,1-1.55-2.11A1.85,1.85,0,0,1,269.8,271.76Z" transform="translate(-249.16 -260.84)"/><path class="cls-1" d="M266.35,266.68a1.57,1.57,0,1,1-1.31-1.79A1.57,1.57,0,0,1,266.35,266.68Z" transform="translate(-249.16 -260.84)"/><path class="cls-1" d="M261.54,262.39a1.34,1.34,0,1,1-1.13-1.54A1.36,1.36,0,0,1,261.54,262.39Z" transform="translate(-249.16 -260.84)"/><path class="cls-1" d="M263.46,291.41a2.94,2.94,0,1,1,2.47,3.37A3,3,0,0,1,263.46,291.41Z" transform="translate(-249.16 -260.84)"/><path class="cls-1" d="M260.11,298.73a2.55,2.55,0,1,1,2.14,2.92A2.57,2.57,0,0,1,260.11,298.73Z" transform="translate(-249.16 -260.84)"/><path class="cls-1" d="M260.33,305.59a2.17,2.17,0,1,1,1.82,2.49A2.18,2.18,0,0,1,260.33,305.59Z" transform="translate(-249.16 -260.84)"/><path class="cls-1" d="M262.67,311.86a1.85,1.85,0,1,1,1.55,2.11A1.85,1.85,0,0,1,262.67,311.86Z" transform="translate(-249.16 -260.84)"/><path class="cls-1" d="M266.12,317a1.57,1.57,0,1,1,1.32,1.79A1.58,1.58,0,0,1,266.12,317Z" transform="translate(-249.16 -260.84)"/><path class="cls-1" d="M270.75,321.24a1.34,1.34,0,1,1,1.13,1.54A1.35,1.35,0,0,1,270.75,321.24Z" transform="translate(-249.16 -260.84)"/><path class="cls-2" d="M338.23,282.46c-1.66-1.56-4.6-2.29-7.6-2.29-3.54,0-7.09,1.06-7.09,3.71,0,5.8,20.61,2.49,20.61,12.77,0,6.2-7.4,9.2-15.9,9.2-5.39,0-10.69-1.09-14.26-3.9l5.85-3.75c1.91,1.92,5.17,3,8.59,3s7.58-1.31,7.58-4c0-6.33-20.61-2.7-20.61-13,0-5.95,8-8.71,16-8.71,4.52,0,9.08.85,12.47,3Z" transform="translate(-249.16 -260.84)"/><path class="cls-2" d="M358.07,290.5c0-5.76,5.95-10.33,14.91-10.33s15,4.57,15,10.33c0,6.15-5.95,10.73-15,10.73S358.07,296.65,358.07,290.5Zm-8.14.32c0,9,9.61,15,23,15,13.56-.16,23.17-6.18,23.17-15.19,0-9.26-9.61-15.28-23.17-15.12C359.54,275.54,349.93,281.56,349.93,290.82Z" transform="translate(-249.16 -260.84)"/><path class="cls-2" d="M403.47,276.2h10.24l21.15,21.51.13.08h-.13l.13-.08V276.2h7.71v29h-9.81L411.3,283h-.12v22.23h-7.71Z" transform="translate(-249.16 -260.84)"/><path class="cls-2" d="M452.31,276.2H460v29h-7.71Z" transform="translate(-249.16 -260.84)"/><path class="cls-2" d="M499.46,283a15,15,0,0,0-9.17-2.86c-9,0-14.94,4.57-14.94,10.33,0,6.15,6,10.73,14.94,10.73a14.79,14.79,0,0,0,9.78-3.52l6.39,3c-3.93,3.58-9.84,5.12-16.23,5.12-13.41,0-23-6-23-15,0-9.26,9.61-15.28,23-15.28,5.9,0,10.95,1.26,15.25,4.55Z" transform="translate(-249.16 -260.84)"/><path class="cls-2" d="M532.94,282.46c-1.66-1.56-4.6-2.29-7.6-2.29-3.55,0-7.1,1.06-7.1,3.71,0,5.8,20.62,2.49,20.62,12.77,0,6.2-7.4,9.2-15.9,9.2-5.39,0-10.69-1.09-14.27-3.9l5.86-3.75c1.91,1.92,5.16,3,8.59,3s7.58-1.31,7.58-4c0-6.33-20.61-2.7-20.61-13,0-5.95,8-8.71,16-8.71,4.52,0,9.08.85,12.47,3Z" transform="translate(-249.16 -260.84)"/><path class="cls-2" d="M319.41,314.67a3,3,0,0,0-1.23-.31c-.65,0-1,.26-1,.58s.53.63,1.43,1.14,1.57,1,1.57,1.71-.92,1.49-2.64,1.49a4.27,4.27,0,0,1-2.25-.55l.55-.62a3.21,3.21,0,0,0,1.56.43c.64,0,1.19-.24,1.19-.75s-1-1-1.63-1.34-1.37-.77-1.37-1.49,1-1.33,2.43-1.33a3.58,3.58,0,0,1,1.93.48Z" transform="translate(-249.16 -260.84)"/><path class="cls-2" d="M326.29,316.38c0-1.53,1.62-2.75,3.81-2.75s3.81,1.22,3.81,2.75-1.46,2.9-3.81,2.9S326.29,318,326.29,316.38Zm6,0a2.19,2.19,0,0,0-4.35,0,2.18,2.18,0,0,0,4.35,0Z" transform="translate(-249.16 -260.84)"/><path class="cls-2" d="M347.07,319.18H346c-1.46-1.25-2.93-2.5-4.37-3.91h0v3.91h-1.23v-5.46h1.12c1.46,1.25,2.92,2.49,4.36,3.9h0v-3.9h1.23Z" transform="translate(-249.16 -260.84)"/><path class="cls-2" d="M353.91,319.18v-5.46h1.54v5.46Z" transform="translate(-249.16 -260.84)"/><path class="cls-2" d="M367.8,314.71a4.82,4.82,0,0,0-1.58-.3c-1.58,0-2.71.79-2.71,2s1.25,2.06,2.75,2.06a4.32,4.32,0,0,0,1.54-.28l.42.68a5.73,5.73,0,0,1-2,.38c-2.65,0-4.32-1.25-4.32-2.86s1.66-2.79,4.35-2.79a5.53,5.53,0,0,1,2.06.42Z" transform="translate(-249.16 -260.84)"/><path class="cls-2" d="M378.43,314.67a2.94,2.94,0,0,0-1.23-.31c-.64,0-1,.26-1,.58s.53.63,1.43,1.14,1.57,1,1.57,1.71-.92,1.49-2.64,1.49a4.29,4.29,0,0,1-2.25-.55l.56-.62a3.14,3.14,0,0,0,1.56.43c.63,0,1.19-.24,1.19-.75s-1-1-1.64-1.34-1.37-.77-1.37-1.49,1-1.33,2.43-1.33a3.58,3.58,0,0,1,1.93.48Z" transform="translate(-249.16 -260.84)"/><path class="cls-2" d="M392.66,317.32a1.3,1.3,0,0,0-.29-1.49h-1l.38-.55H395l-.38.55h-1.12a1.73,1.73,0,0,1-.11,2l1.56,1-1.14.49-1.15-.76a4.12,4.12,0,0,1-2.47.76c-2.1,0-2.81-1.08-2.81-1.7s.67-1.28,1.51-1.54c-.36-.26-.9-.64-.9-1.18s.84-1.23,2.07-1.23a3.72,3.72,0,0,1,1.65.37l-.46.61a2.33,2.33,0,0,0-1-.25c-.52,0-.82.24-.82.5s.26.52,1,1Zm-3-.74a1.06,1.06,0,0,0-.72,1c0,.5.56,1,1.44,1a2.29,2.29,0,0,0,1.54-.51Z" transform="translate(-249.16 -260.84)"/><path class="cls-2" d="M411.67,319.18h-1.54v-4.26h0c-.84,1.53-1.71,2.9-2.57,4.26h-.83c-.82-1.36-1.65-2.73-2.45-4.26h0v4.26H403v-5.46h1.9c.79,1.35,2.06,3.48,2.35,4.18h0c.36-.73,1.74-2.83,2.61-4.18h1.79Z" transform="translate(-249.16 -260.84)"/><path class="cls-2" d="M420.75,313.72l2.87,5.46H421.9l-.71-1.49h-2.71l-.79,1.49h-1.33l3.11-5.46ZM421,317c-.33-.71-.66-1.38-1-2.22h0a21.92,21.92,0,0,1-1,2.22Z" transform="translate(-249.16 -260.84)"/><path class="cls-2" d="M429.87,319.18v-4.72h-2.36v-.74h6.26v.74h-2.36v4.72Z" transform="translate(-249.16 -260.84)"/><path class="cls-2" d="M443.26,314.46h-2.57V316h2.51v.74h-2.51v1.76h3v.73h-4.58v-5.46h4.11Z" transform="translate(-249.16 -260.84)"/><path class="cls-2" d="M449.44,313.72h2.65c1.46,0,2.45.5,2.45,1.43a1.74,1.74,0,0,1-1.29,1.58l1.81,2.34-1.61.21L451.89,317H451v2.18h-1.54Zm1.54,2.55h.62c1.06,0,1.4-.59,1.4-1,0-.61-.61-.82-1.23-.82H451Z" transform="translate(-249.16 -260.84)"/><path class="cls-2" d="M460.48,319.18v-5.46H462v5.46Z" transform="translate(-249.16 -260.84)"/><path class="cls-2" d="M471.69,313.72l2.87,5.46h-1.72l-.71-1.49h-2.71l-.79,1.49H467.3l3.11-5.46Zm.21,3.3c-.33-.71-.66-1.38-1-2.22h0a21.92,21.92,0,0,1-1,2.22Z" transform="translate(-249.16 -260.84)"/><path class="cls-2" d="M479.85,313.72h1.54v4.73h3v.73h-4.57Z" transform="translate(-249.16 -260.84)"/><path class="cls-2" d="M493.68,314.67a2.94,2.94,0,0,0-1.23-.31c-.64,0-1,.26-1,.58s.53.63,1.43,1.14,1.57,1,1.57,1.71-.92,1.49-2.64,1.49a4.27,4.27,0,0,1-2.25-.55l.55-.62a3.22,3.22,0,0,0,1.57.43c.63,0,1.19-.24,1.19-.75s-1-1-1.64-1.34-1.37-.77-1.37-1.49,1-1.33,2.43-1.33a3.58,3.58,0,0,1,1.93.48Z" transform="translate(-249.16 -260.84)"/><path class="cls-2" d="M497.3,320.31l.7-1.37c.29-.58.42-.76.9-.76s.83.29.36.85L498,320.51Z" transform="translate(-249.16 -260.84)"/><path class="cls-2" d="M508.17,319.18v-5.46h1.54v5.46Z" transform="translate(-249.16 -260.84)"/><path class="cls-2" d="M522,319.18h-1.11c-1.46-1.25-2.93-2.5-4.37-3.91h0v3.91h-1.24v-5.46h1.13c1.46,1.25,2.91,2.49,4.36,3.9h0v-3.9H522Z" transform="translate(-249.16 -260.84)"/><path class="cls-2" d="M533.13,314.71a4.94,4.94,0,0,0-1.59-.3c-1.57,0-2.71.79-2.71,2s1.26,2.06,2.76,2.06a4.32,4.32,0,0,0,1.54-.28l.42.68a5.78,5.78,0,0,1-2,.38c-2.65,0-4.32-1.25-4.32-2.86s1.66-2.79,4.34-2.79a5.54,5.54,0,0,1,2.07.42Z" transform="translate(-249.16 -260.84)"/><path class="cls-2" d="M539.37,318.11c.43,0,.81.27.81.58s-.38.59-.8.59-.84-.27-.84-.59S538.92,318.11,539.37,318.11Z" transform="translate(-249.16 -260.84)"/><path class="cls-2" d="M543.25,277.36a3.56,3.56,0,1,1-3.65,3.55A3.53,3.53,0,0,1,543.25,277.36Zm0,6.36a2.8,2.8,0,1,0-2.68-2.81A2.71,2.71,0,0,0,543.25,283.72Zm-1.41-4.81h1.5c1,0,1.56.32,1.56,1.18a1,1,0,0,1-1,1.07l1.07,1.74h-.83l-1-1.71h-.49v1.71h-.79Zm.79,1.67h.7c.45,0,.78-.07.78-.56s-.46-.49-.82-.49h-.66Z" transform="translate(-249.16 -260.84)"/></svg>