<?xml version="1.0" encoding="utf-8"?>
<!-- Generator: Adobe Illustrator 27.1.1, SVG Export Plug-In . SVG Version: 6.00 Build 0)  -->
<svg version="1.1" id="Calque_1" xmlns="http://www.w3.org/2000/svg" xmlns:xlink="http://www.w3.org/1999/xlink" x="0px" y="0px"
	 viewBox="0 0 579.9 134" style="enable-background:new 0 0 579.9 134;" xml:space="preserve">
<style type="text/css">
	.st0{fill:#949597;}
	.st1{fill-rule:evenodd;clip-rule:evenodd;fill:#85BA44;}
	.st2{fill-rule:evenodd;clip-rule:evenodd;fill:#949597;}
	.st3{fill:#85BA44;}
</style>
<g>
	<rect y="124.2" class="st0" width="336" height="1.6"/>
	<rect x="465.1" y="124.2" class="st0" width="114.8" height="1.6"/>
	<rect class="st0" width="579.9" height="1.6"/>
	<path class="st1" d="M361.1,114.2c2.6,0,4.7,1.9,4.7,4.3l0,15.6h-3.7v-14.9c0-1.2-1.1-2.2-2.4-2.2h-7.8v-2.8H361.1L361.1,114.2z
		 M349.6,123.4h10.2v2.8h-10.2v7.8h-3.7v-19.8h3.7V123.4L349.6,123.4z M394.7,129.1c0,1.2,1.1,2.2,2.4,2.2h11.6v2.8h-12.9
		c-2.6,0-4.7-1.9-4.7-4.3v-11.3c0-2.4,2.1-4.3,4.7-4.3h12.9v2.8h-11.6c-1.3,0-2.4,1-2.4,2.2V129.1L394.7,129.1z M417.5,117
		c-0.4,0-0.8,0.3-0.8,0.7v5h12v2.8h-12v5c0,0.4,0.4,0.7,0.8,0.7h13.1v2.8h-16.1c-0.8,0-1.5-0.6-1.5-1.4v-17.1c0-0.8,0.7-1.4,1.5-1.4
		h16.1v2.8H417.5L417.5,117z M374.5,130.5c0,0.4,0.4,0.7,0.8,0.7h12.9v2.8h-15.8c-0.8,0-1.5-0.6-1.5-1.4l0-18.4h3.7V130.5
		L374.5,130.5z M451,128c0.2,0.1,0.3,0,0.3-0.2v-13.6h3.7V134h-1.8c-0.6,0-1.2-0.2-1.5-0.6l-11.9-13.2c-0.2-0.1-0.3,0-0.3,0.2V134
		h-3.7v-18.5v-1.4h1.8c0.6,0,1.2,0.2,1.5,0.6L451,128L451,128z"/>
	<g>
		<path class="st0" d="M274,52.2c-0.1-0.1-0.3-0.2-0.4-0.2c-0.3,0-0.6,0.3-0.6,0.6v39.7c-0.3,0.1-10.5,0-10.5,0l0-56.6h5.2
			c1.8,0,3.4,0.7,4.3,1.7l20,22.2l20-22.2c0.9-1,2.5-1.7,4.3-1.7h5.2v56.6c0,0-10.1,0.1-10.5,0V52.5c0-0.3-0.3-0.6-0.6-0.6
			c-0.2,0-0.3,0.1-0.4,0.2L295.1,69h-5.8L274,52.2L274,52.2z"/>
		<path class="st2" d="M345.6,78.1c0,3.4,3.1,6.2,6.9,6.2h18.9c3.8,0,6.9-2.8,6.9-6.2V49.8c0-3.4-3.1-6.2-6.9-6.2h-18.9
			c-3.8,0-6.9,2.8-6.9,6.2V78.1L345.6,78.1z M348.5,92.2c-7.4,0-13.4-5.4-13.4-12.2V47.8c0-6.7,6-12.2,13.4-12.2h26.9
			c7.4,0,13.4,5.4,13.4,12.2v32.2c0,6.7-6,12.2-13.4,12.2H348.5L348.5,92.2z"/>
		<path class="st2" d="M444.6,51.5c0-4.3-3.9-7.8-8.7-7.9h-20.4c-1.2,0-2.3,0.9-2.3,2l0,38.7l22.7,0c4.8-0.1,8.7-3.6,8.7-7.9V51.5
			L444.6,51.5z M438.1,35.7c9.4,0,17,7,17,15.6v25.5c0,8.6-7.6,15.6-17,15.6l-35.4,0V39.6c0-2.2,1.9-4,4.2-4H438.1L438.1,35.7z"/>
		<polygon class="st3" points="118.3,92.2 107.9,92.2 107.9,35.7 118.3,35.7 118.3,60.6 145.1,35.7 158.8,35.7 133.2,59.5 
			158.8,92.2 146.9,92.2 126.4,65.9 118.3,73.4 118.3,92.2 		"/>
		<polygon class="st3" points="222.3,35.7 222.3,92.1 211.9,92.1 211.9,67.8 180,67.8 180,92.1 169.5,92.1 169.5,35.7 180,35.7 
			180,59.9 211.9,59.9 211.9,35.7 222.3,35.7 		"/>
		<polygon class="st3" points="248.4,92.2 237.9,92.2 237.9,35.7 248.4,35.7 248.4,92.2 		"/>
	</g>
</g>
</svg>
