<?xml version="1.0" encoding="UTF-8"?>
<svg id="Calque_1" xmlns="http://www.w3.org/2000/svg" version="1.1" viewBox="0 0 871.29 254">
  <!-- Generator: Adobe Illustrator 29.6.1, SVG Export Plug-In . SVG Version: 2.1.1 Build 9)  -->
  <defs>
    <style>
      .st0, .st1 {
        fill-rule: evenodd;
      }

      .st0, .st2 {
        fill: #949597;
      }

      .st1, .st3 {
        fill: #85ba44;
      }
    </style>
  </defs>
  <rect class="st2" x="19.78" y="231.55" width="482.13" height="2.73"/>
  <rect class="st2" x="687.16" y="231.55" width="164.73" height="2.73"/>
  <rect class="st2" x="19.78" y="19.66" width="832.11" height="2.73"/>
  <path class="st1" d="M537.93,214.49c3.73,0,6.74,3.24,6.74,7.34v26.61h-5.31v-25.42c0-2.05-1.58-3.75-3.44-3.75h-11.19v-4.78h13.2ZM521.43,230.18h14.64v4.78h-14.64v13.31h-5.31v-33.78h5.31v15.7h0ZM586.14,239.91c0,2.05,1.58,3.75,3.44,3.75h16.65v4.78h-18.51c-3.73,0-6.74-3.24-6.74-7.34v-19.28c0-4.09,3.01-7.34,6.74-7.34h18.51v4.78h-16.65c-1.87,0-3.44,1.71-3.44,3.75v16.89h0ZM618.86,219.26c-.57,0-1.15.51-1.15,1.19v8.53h17.22v4.78h-17.22v8.53c0,.68.57,1.19,1.15,1.19h18.8v4.78h-23.1c-1.15,0-2.15-1.02-2.15-2.39v-29.17c0-1.36,1-2.39,2.15-2.39h23.1v4.78h-18.8v.17ZM557.16,242.29c0,.68.57,1.19,1.15,1.19h18.51v4.78h-22.67c-1.15,0-2.15-1.02-2.15-2.39v-31.39h5.31v27.81h-.14ZM666.93,238.03c.29.17.43,0,.43-.34v-23.2h5.31v33.78h-2.58c-.86,0-1.72-.34-2.15-1.02l-17.08-22.52c-.29-.17-.43,0-.43.34v23.2h-5.31v-33.95h2.58c.86,0,1.72.34,2.15,1.02l17.08,22.69h0Z"/>
  <g>
    <path class="st2" d="M412.95,108.71c-.14-.17-.43-.34-.57-.34-.43,0-.86.51-.86,1.02v67.73c-.43.17-15.07,0-15.07,0v-96.56h7.46c2.58,0,4.88,1.19,6.17,2.9l28.7,37.87,28.7-37.87c1.29-1.71,3.59-2.9,6.17-2.9h7.46v96.56s-14.49.17-15.07,0v-67.9c0-.51-.43-1.02-.86-1.02-.29,0-.43.17-.57.34l-21.38,28.83h-8.32l-21.95-28.66h0Z"/>
    <path class="st0" d="M515.69,152.9c0,5.8,4.45,10.58,9.9,10.58h27.12c5.45,0,9.9-4.78,9.9-10.58v-48.28c0-5.8-4.45-10.58-9.9-10.58h-27.12c-5.45,0-9.9,4.78-9.9,10.58v48.28h0ZM519.85,176.95c-10.62,0-19.23-9.21-19.23-20.81v-54.93c0-11.43,8.61-20.81,19.23-20.81h38.6c10.62,0,19.23,9.21,19.23,20.81v54.93c0,11.43-8.61,20.81-19.23,20.81h-38.6Z"/>
    <path class="st0" d="M657.74,107.52c0-7.34-5.6-13.31-12.48-13.48h-29.27c-1.72,0-3.3,1.54-3.3,3.41v66.02h32.57c6.89-.17,12.48-6.14,12.48-13.48v-42.48h0ZM648.42,80.56c13.49,0,24.39,11.94,24.39,26.61v43.5c0,14.67-10.91,26.61-24.39,26.61h-50.8v-90.08c0-3.75,2.73-6.82,6.03-6.82h44.77v.17Z"/>
    <polygon class="st3" points="189.53 176.95 174.61 176.95 174.61 80.56 189.53 80.56 189.53 123.04 227.99 80.56 247.64 80.56 210.91 121.17 247.64 176.95 230.57 176.95 201.15 132.09 189.53 144.88 189.53 176.95"/>
    <polygon class="st3" points="338.76 80.56 338.76 176.78 323.84 176.78 323.84 135.33 278.06 135.33 278.06 176.78 263 176.78 263 80.56 278.06 80.56 278.06 121.85 323.84 121.85 323.84 80.56 338.76 80.56"/>
    <polygon class="st3" points="376.21 176.95 361.15 176.95 361.15 80.56 376.21 80.56 376.21 176.95"/>
  </g>
</svg>