<?xml version="1.0" encoding="UTF-8"?>
<svg id="Calque_1" xmlns="http://www.w3.org/2000/svg" version="1.1" viewBox="0 0 579.9 180.86">
  <!-- Generator: Adobe Illustrator 29.6.1, SVG Export Plug-In . SVG Version: 2.1.1 Build 9)  -->
  <defs>
    <style>
      .st0, .st1 {
        fill-rule: evenodd;
      }

      .st0, .st2 {
        fill: #949597;
      }

      .st1, .st3 {
        fill: #85ba44;
      }
    </style>
  </defs>
  <rect class="st2" y="162.87" width="336" height="2.03"/>
  <rect class="st2" x="465.1" y="162.87" width="114.8" height="2.03"/>
  <rect class="st2" y="5.56" width="579.9" height="2.03"/>
  <path class="st1" d="M361.1,150.2c2.6,0,4.7,2.41,4.7,5.45v19.76h-3.7v-18.87c0-1.52-1.1-2.79-2.4-2.79h-7.8v-3.55h9.2ZM349.6,161.85h10.2v3.55h-10.2v9.88h-3.7v-25.08h3.7v11.65h0ZM394.7,169.07c0,1.52,1.1,2.79,2.4,2.79h11.6v3.55h-12.9c-2.6,0-4.7-2.41-4.7-5.45v-14.31c0-3.04,2.1-5.45,4.7-5.45h12.9v3.55h-11.6c-1.3,0-2.4,1.27-2.4,2.79v12.54h0ZM417.5,153.75c-.4,0-.8.38-.8.89v6.33h12v3.55h-12v6.33c0,.51.4.89.8.89h13.1v3.55h-16.1c-.8,0-1.5-.76-1.5-1.77v-21.66c0-1.01.7-1.77,1.5-1.77h16.1v3.55h-13.1v.13ZM374.5,170.84c0,.51.4.89.8.89h12.9v3.55h-15.8c-.8,0-1.5-.76-1.5-1.77v-23.3h3.7v20.64h-.1ZM451,167.68c.2.13.3,0,.3-.25v-17.23h3.7v25.08h-1.8c-.6,0-1.2-.25-1.5-.76l-11.9-16.72c-.2-.13-.3,0-.3.25v17.23h-3.7v-25.2h1.8c.6,0,1.2.25,1.5.76l11.9,16.85h0Z"/>
  <g>
    <path class="st2" d="M274,71.67c-.1-.13-.3-.25-.4-.25-.3,0-.6.38-.6.76v50.28c-.3.13-10.5,0-10.5,0V50.78h5.2c1.8,0,3.4.89,4.3,2.15l20,28.12,20-28.12c.9-1.27,2.5-2.15,4.3-2.15h5.2v71.69s-10.1.13-10.5,0v-50.41c0-.38-.3-.76-.6-.76-.2,0-.3.13-.4.25l-14.9,21.4h-5.8l-15.3-21.28h0Z"/>
    <path class="st0" d="M345.6,104.48c0,4.31,3.1,7.85,6.9,7.85h18.9c3.8,0,6.9-3.55,6.9-7.85v-35.84c0-4.31-3.1-7.85-6.9-7.85h-18.9c-3.8,0-6.9,3.55-6.9,7.85v35.84h0ZM348.5,122.34c-7.4,0-13.4-6.84-13.4-15.45v-40.78c0-8.49,6-15.45,13.4-15.45h26.9c7.4,0,13.4,6.84,13.4,15.45v40.78c0,8.49-6,15.45-13.4,15.45h-26.9Z"/>
    <path class="st0" d="M444.6,70.79c0-5.45-3.9-9.88-8.7-10.01h-20.4c-1.2,0-2.3,1.14-2.3,2.53v49.02h22.7c4.8-.13,8.7-4.56,8.7-10.01v-31.54h0ZM438.1,50.78c9.4,0,17,8.87,17,19.76v32.3c0,10.89-7.6,19.76-17,19.76h-35.4V55.72c0-2.79,1.9-5.07,4.2-5.07h31.2v.13Z"/>
    <polygon class="st3" points="118.3 122.34 107.9 122.34 107.9 50.78 118.3 50.78 118.3 82.31 145.1 50.78 158.8 50.78 133.2 80.92 158.8 122.34 146.9 122.34 126.4 89.03 118.3 98.52 118.3 122.34"/>
    <polygon class="st3" points="222.3 50.78 222.3 122.21 211.9 122.21 211.9 91.43 180 91.43 180 122.21 169.5 122.21 169.5 50.78 180 50.78 180 81.43 211.9 81.43 211.9 50.78 222.3 50.78"/>
    <polygon class="st3" points="248.4 122.34 237.9 122.34 237.9 50.78 248.4 50.78 248.4 122.34"/>
  </g>
</svg>