<?xml version="1.0" encoding="UTF-8"?>
<svg width="150px" height="60px" viewBox="0 0 150 60" version="1.1" xmlns="http://www.w3.org/2000/svg" xmlns:xlink="http://www.w3.org/1999/xlink">
    <title>logo_imina</title>
    <g id="Symbols" stroke="none" stroke-width="1" fill="none" fill-rule="evenodd">
        <g id="logo_imina" fill="#B03036">
            <path d="M149.514835,14.5541758 L146.795604,6.68989011 L131.974725,18.3223077 L136.335714,5.61571429 C137.187363,3.13274725 135.342308,0.549230769 132.717582,0.549780132 L124.396154,0.550879121 L135.686264,33.2074725 C136.545055,35.690989 139.595604,36.5893407 141.662637,34.9657143 L148.198901,29.8338462 L132.478022,19.6574725 L145.908791,19.6283516 C148.533516,19.6228571 150.373077,17.0349451 149.514835,14.5541758" id="Fill-1"></path>
            <polygon id="Fill-4" points="6.28906593 49.2623626 6.28906593 59.1585165 3.82642857 59.1585165 3.82642857 49.2623626 0.531373626 49.2623626 0.531373626 47.175 9.58467033 47.175 9.58467033 49.2623626"></polygon>
            <polygon id="Fill-6" points="12.4717033 59.1584066 12.4717033 47.1748901 20.781044 47.1748901 20.781044 49.2622527 14.9343407 49.2622527 14.9343407 52.0726923 19.9123626 52.0726923 19.9123626 54.1595055 14.9343407 54.1595055 14.9343407 57.0715934 20.781044 57.0715934 20.781044 59.1584066"></polygon>
            <path d="M28.292033,59.2592857 C26.9101648,59.2592857 25.7760989,58.7884066 24.8909341,57.9466484 C23.6151099,56.7345604 23.6502747,55.2367582 23.6502747,53.166978 C23.6502747,51.0966484 23.6151099,49.5988462 24.8909341,48.3867582 C25.7760989,47.5455495 26.9101648,47.0741209 28.292033,47.0741209 C30.6486264,47.0741209 32.4909341,48.3532418 32.9337912,50.8609341 L30.435989,50.8609341 C30.1876374,49.9015934 29.5502747,49.1614835 28.3096154,49.1614835 C27.6365385,49.1614835 27.0876374,49.3966484 26.7332418,49.784011 C26.2546703,50.288956 26.1129121,50.8609341 26.1129121,53.166978 C26.1129121,55.4724725 26.2546703,56.0444505 26.7332418,56.5493956 C27.0876374,56.9367582 27.6365385,57.1724725 28.3096154,57.1724725 C29.5502747,57.1724725 30.1876374,56.4318132 30.435989,55.4724725 L32.9337912,55.4724725 C32.4909341,57.9801648 30.6304945,59.2592857 28.292033,59.2592857" id="Fill-8"></path>
            <polygon id="Fill-10" points="42.6772527 59.1584066 42.6772527 54.143022 38.4074725 54.143022 38.4074725 59.1584066 35.9453846 59.1584066 35.9453846 47.1748901 38.4074725 47.1748901 38.4074725 52.0726923 42.6772527 52.0726923 42.6772527 47.1748901 45.1398901 47.1748901 45.1398901 59.1584066"></polygon>
            <polygon id="Fill-12" points="56.4247802 59.1584066 51.4286264 51.8034615 51.4286264 59.1584066 48.965989 59.1584066 48.965989 47.1748901 51.1632418 47.1748901 56.1593956 54.5133516 56.1593956 47.1748901 58.6214835 47.1748901 58.6214835 59.1584066"></polygon>
            <path d="M68.2589011,49.8010989 C67.9045055,49.4137363 67.3550549,49.1615385 66.681978,49.1615385 C66.0089011,49.1615385 65.4418681,49.4137363 65.0874725,49.8010989 C64.6094505,50.306044 64.4852747,50.8615385 64.4852747,53.167033 C64.4852747,55.471978 64.6094505,56.028022 65.0874725,56.532967 C65.4418681,56.9203297 66.0089011,57.1725275 66.681978,57.1725275 C67.3550549,57.1725275 67.9045055,56.9203297 68.2589011,56.532967 C68.7374725,56.028022 68.8786813,55.471978 68.8786813,53.167033 C68.8786813,50.8615385 68.7374725,50.306044 68.2589011,49.8010989 M70.0836264,57.9461538 C69.1979121,58.7879121 68.1171429,59.2593407 66.681978,59.2593407 C65.2473626,59.2593407 64.1484615,58.7879121 63.2627473,57.9461538 C61.9869231,56.7346154 62.0226374,55.2373626 62.0226374,53.167033 C62.0226374,51.0961538 61.9869231,49.5989011 63.2627473,48.3873626 C64.1484615,47.5461538 65.2473626,47.0747253 66.681978,47.0747253 C68.1171429,47.0747253 69.1979121,47.5461538 70.0836264,48.3873626 C71.3594505,49.5989011 71.3413325,51.0961538 71.3413325,53.167033 C71.3413325,55.2373626 71.3594505,56.7346154 70.0836264,57.9461538" id="Fill-14"></path>
            <polygon id="Fill-16" points="74.7425824 59.1584066 74.7425824 47.1748901 77.2052198 47.1748901 77.2052198 57.0715934 82.9277473 57.0715934 82.9277473 59.1584066"></polygon>
            <path d="M91.1630769,49.8010989 C90.8086813,49.4137363 90.2592308,49.1615385 89.5867033,49.1615385 C88.9130769,49.1615385 88.346044,49.4137363 87.9921978,49.8010989 C87.5130769,50.306044 87.39,50.8615385 87.39,53.167033 C87.39,55.471978 87.5130769,56.028022 87.9921978,56.532967 C88.346044,56.9203297 88.9130769,57.1725275 89.5867033,57.1725275 C90.2592308,57.1725275 90.8086813,56.9203297 91.1630769,56.532967 C91.6410989,56.028022 91.7834066,55.471978 91.7834066,53.167033 C91.7834066,50.8615385 91.6410989,50.306044 91.1630769,49.8010989 M92.9878022,57.9461538 C92.1015385,58.7879121 91.0213187,59.2593407 89.5867033,59.2593407 C88.1515385,59.2593407 87.0531868,58.7879121 86.1669231,57.9461538 C84.8910989,56.7346154 84.9268132,55.2373626 84.9268132,53.167033 C84.9268132,51.0961538 84.8910989,49.5989011 86.1669231,48.3873626 C87.0531868,47.5461538 88.1515385,47.0747253 89.5867033,47.0747253 C91.0213187,47.0747253 92.1015385,47.5461538 92.9878022,48.3873626 C94.2641758,49.5989011 94.2455096,51.0961538 94.2455096,53.167033 C94.2455096,55.2373626 94.2641758,56.7346154 92.9878022,57.9461538" id="Fill-18"></path>
            <path d="M105.424066,57.8963736 C104.414176,58.8892308 103.21033,59.259011 101.863626,59.259011 C100.481758,59.259011 99.3471429,58.7886813 98.4614286,57.9469231 C97.1867033,56.7348352 97.2212268,55.2364835 97.2212268,53.1672527 C97.2212268,51.0969231 97.1867033,49.5985714 98.4614286,48.3864835 C99.3471429,47.5452747 100.445495,47.0743956 101.863626,47.0743956 C104.786703,47.0743956 106.275165,48.8914286 106.611429,50.9117582 L104.130659,50.9117582 C103.847692,49.7837363 103.121868,49.1617582 101.863626,49.1617582 C101.19,49.1617582 100.640549,49.413956 100.286154,49.8013187 C99.8081319,50.3062637 99.6845055,50.8606593 99.6845055,53.1672527 C99.6845055,55.4727473 99.8081319,56.0447253 100.286154,56.5496703 C100.640549,56.937033 101.19,57.1727473 101.863626,57.1727473 C102.607582,57.1727473 103.21033,56.92 103.617473,56.4996703 C104.024615,56.0612088 104.183956,55.5232967 104.183956,54.9007692 L104.183956,54.4463736 L101.863626,54.4463736 L101.863626,52.4936264 L106.629011,52.4936264 L106.629011,54.2441758 C106.629011,55.9776923 106.30978,57.0205495 105.424066,57.8963736" id="Fill-20"></path>
            <polygon id="Fill-22" points="110.012088 59.1593407 112.474176 59.1593407 112.474176 47.1752747 110.012088 47.1752747"></polygon>
            <polygon id="Fill-24" points="116.301484 59.1584066 116.301484 47.1748901 124.610275 47.1748901 124.610275 49.2622527 118.764121 49.2622527 118.764121 52.0726923 123.742143 52.0726923 123.742143 54.1595055 118.764121 54.1595055 118.764121 57.0715934 124.610275 57.0715934 124.610275 59.1584066"></polygon>
            <path d="M131.377582,59.2592857 C129.464396,59.2592857 128.011648,58.8719231 126.771538,57.6774176 L128.366044,56.1625824 C129.163297,56.9197253 130.244066,57.1724725 131.412747,57.1724725 C132.865495,57.1724725 133.645165,56.6504945 133.645165,55.6911538 C133.645165,55.2708242 133.520989,54.916978 133.255604,54.6812637 C133.007253,54.4631319 132.724286,54.345 132.13967,54.2609341 L130.615495,54.0587363 C129.534725,53.9070879 128.738022,53.5873077 128.170989,53.0664286 C127.568242,52.4939011 127.267692,51.7191758 127.267692,50.7092857 C127.267692,48.5719231 128.932527,47.0741209 131.661099,47.0741209 C133.397363,47.0741209 134.655055,47.4785165 135.735824,48.4713736 L134.177033,49.9356593 C133.37978,49.2114835 132.422637,49.1109341 131.59022,49.1109341 C130.279231,49.1109341 129.641319,49.801044 129.641319,50.6252198 C129.641319,50.9285165 129.747912,51.2482967 130.013297,51.484011 C130.261648,51.7026923 130.668791,51.8878571 131.183077,51.9548901 L132.670989,52.1570879 C133.822637,52.3087363 134.548462,52.6114835 135.08033,53.0823626 C135.753407,53.6884066 136.055055,54.5636813 136.055055,55.6241209 C136.055055,57.9466484 134.017143,59.2592857 131.377582,59.2592857" id="Fill-25"></path>
            <polygon id="Fill-26" points="105.683242 22.4002198 111.256868 22.4002198 108.469505 13.5452747"></polygon>
            <path d="M112.873352,27.6068132 L104.068956,27.6068132 L102.056319,34.0238462 L94.9942308,34.0238462 L104.223901,7.39087912 L111.313462,7.39087912 C112.468956,7.39087912 113.446429,8.18153846 113.850275,9.31835165 L122.409615,34.0238462 L114.923352,34.0238462 L112.873352,27.6068132 Z M93.1271978,33.9683516 L85.5771978,33.9683516 L75.5255495,16.7782418 L75.5255495,33.9683516 L68.7832418,33.9683516 L68.7832418,7.44637363 L75.6711538,7.44637363 C76.6321429,7.44637363 77.4766484,7.99417582 77.953022,8.8167033 L86.3854396,23.4134066 L86.3854396,7.44637363 L90.4337912,7.44637363 C91.918956,7.44637363 93.1271978,8.75571429 93.1271978,10.3650549 L93.1271978,33.9683516 Z M63.4695055,33.9683516 L56.4178571,33.9683516 L56.4178571,7.44637363 L60.7766484,7.44637363 C62.2618132,7.44637363 63.4695055,8.75571429 63.4695055,10.3650549 L63.4695055,33.9683516 Z M51.1046703,33.9683516 L44.2837912,33.9683516 L44.2837912,15.5046154 L38.4068681,33.9683516 L32.6788462,33.9683516 L26.8101648,15.4436264 L26.8101648,33.9683516 L20.1837912,33.9683516 L20.1837912,7.44637363 L28.8173077,7.44637363 C30.0887363,7.44637363 31.0612637,8.45131868 31.3596154,9.48538462 L35.7777473,24.1540659 L40.6337912,7.44637363 L48.4107143,7.44637363 C49.8953297,7.44637363 51.1046703,8.75516484 51.1046703,10.3650549 L51.1046703,33.9683516 Z M14.8695055,33.9683516 L7.81730769,33.9683516 L7.81730769,7.44637363 L12.1755495,7.44637363 C13.6618132,7.44637363 14.8695055,8.75571429 14.8695055,10.3650549 L14.8695055,33.9683516 Z M119.162912,0.54967033 L-0.000274725275,0.54967033 L-0.000274725275,41.0579121 L133.193132,41.0579121 L119.162912,0.54967033 Z" id="Fill-27"></path>
        </g>
    </g>
</svg>