<?xml version="1.0" encoding="UTF-8"?><svg id="Layer_1" xmlns="http://www.w3.org/2000/svg" viewBox="0 0 502.32 198.75"><defs><style>.cls-1{fill:#00a7e7;}.cls-1,.cls-2{stroke-width:0px;}.cls-2{fill:#fff;}</style></defs><rect class="cls-1" y="0" width="502.32" height="198.75"/><g id="Vrstva_1"><path class="cls-2" d="M463.42,119.45v-16.2c0-.87-.15-1.74-.44-2.56-.28-.68-.68-1.29-1.19-1.82-.49-.47-1.08-.85-1.72-1.08s-1.31-.34-2.01-.34c-1.06,0-2.14.17-3.14.53-1.02.36-1.97.95-2.75,1.72v19.76h-6.76v-27.16h6.76v2.03c.44-.44.95-.83,1.48-1.12.59-.34,1.21-.64,1.84-.87,1.25-.47,2.58-.7,3.92-.72,1.36,0,2.69.21,3.96.64,1.25.42,2.41,1.12,3.37,2.03,1.04.97,1.86,2.18,2.39,3.52.61,1.63.91,3.39.87,5.13l.15,16.52h-6.76.02ZM87.13,110.95c.91-.08,1.84-.08,2.75,0h.64c5.68.44,10.61-3.81,11.06-9.47.23-2.99-.87-5.93-2.99-8.07v.04c-4-4.02-10.51-4.05-14.53-.04-2.18,2.18-3.28,5.23-2.99,8.3v.42c.42,4.41-1.14,8.79-4.28,11.93-.47.44-.95.87-1.46,1.27-8.16,6.46-20,5.11-26.46-3.05-5.44-6.86-5.44-16.57,0-23.41.4-.51.83-1,1.27-1.46,3.14-3.16,7.5-4.72,11.93-4.28h.64c5.68.47,10.63-3.77,11.1-9.43.44-5.66-3.77-10.63-9.45-11.08-5.68-.47-10.63,3.77-11.1,9.43-.04.61-.04,1.21,0,1.82v.44c.8,8.16-5.17,15.42-13.32,16.23-.97.11-1.97.08-2.94,0h-.61c-1.33-.08-2.65.06-3.92.44-.34.11-.68.23-1.02.4l-.23.11-.76.4-.32.19-.66.38-.28.21c-.3.23-.57.49-.87.76-.28.28-.49.51-.7.78-.51.64-.93,1.31-1.29,2.03-.23.51-.42,1.04-.59,1.57-.13.4-.21.83-.28,1.25-.11.55-.15,1.12-.15,1.67,0,.44.02.89.08,1.31.11.85.32,1.69.64,2.5.53,1.29,1.31,2.48,2.29,3.47.28.28.55.53.87.76l.19.15.76.51.3.17c.23.15.47.28.72.4l.3.15.85.34c1.38.47,2.84.61,4.28.49h.44c8.18-.76,15.42,5.23,16.2,13.39.08.93.08,1.86,0,2.8v.64c-.08,1.33.06,2.65.44,3.92.15.44.28.74.4,1.02l.15.3.36.7.19.34c.15.21.3.44.47.66l.21.28c.23.28.49.57.76.87.28.28.51.47.76.7.53.42,1.1.8,1.72,1.12,1.74.91,3.73,1.31,5.68,1.12h.32c.59-.06,1.17-.17,1.72-.34.53-.17,1.06-.36,1.57-.61.74-.34,1.42-.78,2.03-1.29.28-.21.55-.44.78-.7.28-.28.53-.55.76-.87l.15-.17c.21-.32.4-.53.53-.76l.19-.32c.13-.23.25-.44.36-.7l.15-.3c.13-.28.21-.55.34-.83.47-1.38.64-2.84.51-4.3v-.44c-.8-8.16,5.19-15.42,13.35-16.23v-.04ZM266.99,94.26c-1-.91-2.18-1.59-3.45-2.03-1.27-.42-2.63-.64-3.96-.64-.66,0-1.31.06-1.97.19-.68.13-1.33.3-1.97.53s-1.27.53-1.84.87c-.57.3-1.1.68-1.57,1.12v-2.03h-6.76v27.14h6.76v-19.76c.78-.76,1.72-1.33,2.73-1.72,1-.36,2.08-.55,3.14-.53.68,0,1.36.11,2.01.34.64.23,1.23.61,1.72,1.08.51.51.93,1.14,1.19,1.82.32.8.47,1.67.44,2.56v16.2h6.76v-16.52c.06-1.76-.25-3.5-.87-5.13-.53-1.33-1.33-2.52-2.37-3.52l.02.02ZM233.82,95.57c2.82,2.65,4.41,6.35,4.36,10.23h-.08c.02.44.02.91,0,1.36,0,.47-.11.95-.17,1.44h-21.75c.25.78.59,1.55,1.06,2.25.44.7,1.02,1.31,1.67,1.82.68.53,1.42.95,2.22,1.23.89.32,1.82.47,2.75.44,1.25,0,2.48-.23,3.66-.64,1.12-.36,2.16-.93,3.05-1.72l4.28,4.26c-1.67,1.29-3.54,2.31-5.53,2.99-1.84.59-3.77.87-5.7.87-5.8.06-11.1-3.35-13.39-8.68-1.5-3.56-1.5-7.56,0-11.12.74-1.69,1.8-3.24,3.14-4.53,1.33-1.29,2.88-2.33,4.6-3.05,1.78-.76,3.71-1.12,5.63-1.12s3.75.36,5.49,1.06c1.74.68,3.33,1.67,4.7,2.92ZM231,103.16c-.49-1.65-1.48-3.09-2.84-4.13-1.31-1.04-2.94-1.59-4.62-1.57-1.65,0-3.26.53-4.55,1.57-1.36,1.06-2.33,2.5-2.82,4.13h14.83ZM126.1,92.48l-.87-.74-.19-.13-.76-.51-.3-.17-.72-.38-.3-.13c-.28-.13-.55-.23-.83-.32-1.38-.42-2.84-.55-4.26-.4h-.47c-8.18.74-15.42-5.08-16.18-13.03-.08-.91-.08-1.82,0-2.71v-.61c.11-1.29-.06-2.58-.44-3.81-.15-.44-.28-.72-.4-1l-.13-.28-.38-.68-.19-.3c-.15-.21-.3-.42-.47-.64l-.15-.28c-.23-.3-.49-.57-.76-.85s-.51-.47-.78-.68c-.53-.42-1.12-.78-1.72-1.1-1.74-.89-3.71-1.29-5.68-1.14h-.32c-.59.08-1.17.23-1.72.4-.53.15-1.06.34-1.57.57-.72.34-1.42.76-2.03,1.25-.28.21-.53.44-.78.68-.28.25-.53.55-.76.85l-.15.19-.51.74-.19.3c-.15.21-.25.44-.38.68l-.15.3c-.11.25-.21.53-.32.8-.47,1.33-.64,2.77-.51,4.17v.42c.76,7.94-5.23,15-13.39,15.74-.93.08-1.86.08-2.8,0h-.64c-5.66-.44-10.61,3.66-11.06,9.17-.23,2.92.85,5.8,2.99,7.86h.04c4.02,3.88,10.53,3.88,14.55-.02,2.18-2.12,3.26-5.06,2.97-8.03v-.42c-.42-4.28,1.14-8.54,4.28-11.57.44-.44.93-.85,1.42-1.23,8.11-6.31,19.98-5.04,26.46,2.86,5.49,6.67,5.51,16.16,0,22.84-.4.51-.83.97-1.29,1.44-3.14,3.05-7.5,4.58-11.93,4.17h-.61c-5.66-.44-10.63,3.66-11.08,9.17-.47,5.51,3.77,10.34,9.43,10.78,5.66.44,10.63-3.66,11.08-9.17.04-.59.04-1.19,0-1.76v-.42c-.8-7.94,5.17-15,13.35-15.78.95-.08,1.93-.08,2.88,0h.64c1.33.08,2.65-.06,3.92-.47l1-.36.23-.11c.25-.13.53-.25.76-.4l.32-.19.66-.44.28-.19c.3-.23.59-.49.87-.74.25-.25.49-.51.7-.76.51-.61.93-1.27,1.29-1.99.25-.49.44-1,.59-1.53.11-.4.21-.8.28-1.21.08-.55.15-1.1.15-1.65,0-.42-.02-.85-.08-1.27-.28-2.2-1.31-4.24-2.92-5.8h.04ZM193.47,81.85v24.51l-15.93-24.51h-8.13v37.6h7.12v-26.35l16.97,26.33h7.12v-37.54h-7.14v-.04ZM393.92,119.4h6.86v-27.16h-6.86v27.18-.02ZM383.58,106.55c-.83-.72-1.74-1.36-2.71-1.84-1.06-.55-2.16-.97-3.3-1.31-1.42-.38-2.8-.89-4.09-1.57-.95-.53-1.44-1.17-1.44-1.89,0-.4.13-.78.38-1.1.25-.34.59-.61.95-.8.8-.4,1.67-.61,2.56-.64,1.14,0,2.27.28,3.28.83,1.04.59,1.95,1.38,2.69,2.31l4.02-4.09c-2.48-3.07-6.23-4.81-10.17-4.7-1.29,0-2.58.19-3.81.55-1.21.34-2.33.87-3.37,1.57-.97.7-1.8,1.59-2.39,2.63-.61,1.08-.93,2.31-.93,3.54,0,1.08.21,2.16.7,3.14.49.91,1.12,1.74,1.89,2.41.8.7,1.69,1.29,2.67,1.78,1.02.49,2.05.89,3.14,1.21,1.46.38,2.88.91,4.22,1.57.87.32,1.48,1.1,1.57,2.03,0,.74-.38,1.42-1.06,1.76-.83.42-1.74.61-2.65.57-1.21,0-2.37-.3-3.43-.87-1.08-.61-2.05-1.42-2.82-2.41l-4.07,4.05c1.21,1.59,2.77,2.86,4.6,3.69,1.8.78,3.75,1.17,5.72,1.14,1.25,0,2.52-.19,3.73-.53,1.21-.34,2.35-.87,3.39-1.57,1-.7,1.82-1.59,2.46-2.63.64-1.08.97-2.33.93-3.6-.04-1-.32-1.97-.8-2.86-.47-.91-1.1-1.72-1.86-2.39l.02.04ZM437.79,105.85h.02c0,1.95-.36,3.88-1.12,5.66-.74,1.69-1.8,3.22-3.14,4.51-1.33,1.31-2.9,2.35-4.64,3.07-1.8.74-3.71,1.12-5.66,1.1-3.83,0-7.52-1.53-10.23-4.24-1.33-1.29-2.39-2.82-3.14-4.51-.76-1.78-1.14-3.69-1.12-5.61,0-1.91.38-3.81,1.17-5.55.74-1.72,1.82-3.26,3.14-4.55,1.31-1.29,2.86-2.31,4.55-3.01,1.76-.74,3.66-1.12,5.59-1.1,1.93,0,3.86.36,5.66,1.1,1.72.7,3.28,1.72,4.64,2.99,1.33,1.29,2.41,2.82,3.14,4.53.76,1.78,1.14,3.69,1.14,5.63v-.02ZM431.08,105.85c0-2.18-.8-4.28-2.27-5.87-.7-.74-1.53-1.33-2.46-1.76-1.91-.87-4.09-.87-5.99,0-.93.42-1.76,1.02-2.46,1.76-3.05,3.3-3.05,8.41,0,11.74.7.74,1.53,1.33,2.46,1.76,1.91.87,4.09.87,5.99,0,.93-.42,1.76-1.02,2.46-1.76,1.48-1.59,2.29-3.69,2.27-5.87ZM305.67,100.19c.74,1.8,1.12,3.73,1.08,5.66h-.04c.04,3.79-1.46,7.44-4.17,10.1-1.33,1.33-2.9,2.39-4.64,3.14-1.8.74-3.73,1.12-5.66,1.1-1.93,0-3.86-.36-5.63-1.1-1.72-.74-3.28-1.8-4.6-3.14-1.33-1.29-2.39-2.82-3.14-4.51-.76-1.78-1.14-3.69-1.12-5.61,0-1.91.4-3.81,1.19-5.55,1.48-3.45,4.26-6.19,7.71-7.6,1.78-.74,3.66-1.1,5.59-1.1s3.88.36,5.66,1.1c1.72.7,3.28,1.72,4.64,2.99,1.33,1.29,2.41,2.84,3.14,4.53h0ZM299.95,105.85h0c0-2.18-.8-4.28-2.27-5.87-.68-.74-1.5-1.33-2.41-1.76-1.91-.87-4.09-.87-5.99,0-.93.42-1.76,1.02-2.46,1.76-3.05,3.3-3.05,8.41,0,11.74.7.74,1.53,1.33,2.46,1.76,1.91.87,4.09.87,5.99,0,.93-.42,1.76-1.02,2.46-1.76,1.46-1.61,2.27-3.69,2.27-5.87h-.04ZM393.84,87.54h7.05v-7.03h-7.05v7.03ZM326.62,108.24l-9.77-26.39h-8.09l14.55,37.56h6.67l14.21-37.56h-7.96l-9.64,26.39h.02ZM350.3,119.4h6.84v-27.16h-6.84v27.18-.02ZM350.22,87.52h7.03v-7.03h-7.03v7.03Z"/></g></svg>