<?xml version="1.0" encoding="UTF-8"?><svg id="Layer_1" xmlns="http://www.w3.org/2000/svg" viewBox="0 0 324.02 81.83"><defs><style>.cls-1{fill:#231f20;}.cls-1,.cls-2{stroke-width:0px;}.cls-2{fill:#eb2127;}</style></defs><path class="cls-2" d="M249.69,13.77c-14.68.49-26.61,12.41-27.13,27.09-.2,5.79,1.35,11.21,4.17,15.77-.47-1.91-.73-3.91-.73-5.97,0-13.69,11.1-24.8,24.8-24.8.65,0,1.29.03,1.92.08,1.84.04,3.61.38,5.25.98,1.64.6,3.17,1.45,4.52,2.51,1.59,1.25,3.75,1.49,5.58.64.04-.02.08-.04.12-.05,3.53-1.62,4.26-6.33,1.39-8.94-5.21-4.75-12.22-7.56-19.88-7.31Z"/><path class="cls-1" d="M250.9,58.59c-8.07-.71-14.47-7.39-14.85-15.49-.41-8.53,5.71-15.71,13.8-16.97-.06,0-.12.02-.19.03-14.04,2.25-23.6,15.47-21.34,29.51v.05c.5,3.02,2.02,5.79,4.37,7.75,4.87,4.06,11.14,6.51,17.98,6.51,5.87,0,11.32-1.8,15.83-4.88,2.69-1.84,3.02-5.68.72-7.98h0c-1.71-1.72-4.36-1.99-6.44-.75-2.84,1.69-6.24,2.55-9.86,2.23Z"/><path class="cls-1" d="M21.05,57.66c-2.18,0-4.2-.36-6.07-1.07-1.87-.71-3.49-1.73-4.86-3.05-1.37-1.32-2.44-2.87-3.21-4.64-.77-1.77-1.15-3.72-1.15-5.85s.38-4.08,1.15-5.85,1.84-3.32,3.23-4.64c1.39-1.32,3.01-2.33,4.88-3.05,1.87-.71,3.89-1.07,6.07-1.07,2.45,0,4.67.42,6.66,1.27,1.99.85,3.56,2.35,3.56,2.35.79.76.78,1.99-.03,2.73l-1.28,1.17c-.81.74-2.12.73-2.92-.04,0,0-.57-.55-1.77-1.11-1.2-.56-2.5-.85-3.89-.85-1.32,0-2.53.22-3.63.67-1.1.44-2.06,1.07-2.86,1.88-.81.81-1.43,1.76-1.88,2.87-.44,1.1-.67,2.33-.67,3.67s.22,2.57.67,3.67c.44,1.1,1.07,2.06,1.88,2.87.81.81,1.76,1.43,2.86,1.88,1.1.44,2.31.67,3.63.67,1.4,0,2.7-.29,3.89-.87,1.2-.58,1.77-1.13,1.77-1.13.79-.76,2.1-.78,2.91-.04l1.28,1.17c.81.74.83,1.97.03,2.73,0,0-1.57,1.51-3.56,2.37-1.99.86-4.22,1.29-6.7,1.29Z"/><path class="cls-1" d="M34.99,57.17c-1.1,0-1.63-.82-1.19-1.83l10.92-24.59c.45-1.01,1.71-1.83,2.81-1.83h2.46c1.1,0,2.37.82,2.82,1.82l11.03,24.59c.45,1-.08,1.82-1.18,1.82h-2.86c-1.1,0-2.35-.83-2.77-1.85l-8.83-21.24c-.42-1.02-.18-1.85.54-1.85s.97.83.54,1.85l-8.83,21.24c-.42,1.02-1.67,1.85-2.77,1.85h-2.7ZM41.33,51.12c-1.1,0-1.72-.85-1.37-1.9l.39-1.17c.35-1.04,1.53-1.9,2.63-1.9h10.61c1.1,0,2.29.85,2.65,1.89l.4,1.18c.36,1.04-.25,1.89-1.35,1.89h-13.96Z"/><path class="cls-1" d="M74.21,57.17c-1.1,0-2-.9-2-2v-18.92c0-1.1-.9-2-2-2h-5.04c-1.1,0-2-.9-2-2v-1.33c0-1.1.9-2,2-2h20.61c1.1,0,2,.9,2,2v1.33c0,1.1-.9,2-2,2h-5.04c-1.1,0-2,.9-2,2v18.92c0,1.1-.9,2-2,2h-2.54Z"/><path class="cls-1" d="M88.33,57.17c-1.1,0-1.63-.82-1.19-1.83l10.92-24.59c.45-1.01,1.71-1.83,2.81-1.83h2.46c1.1,0,2.37.82,2.82,1.82l11.03,24.59c.45,1-.08,1.82-1.18,1.82h-2.86c-1.1,0-2.35-.83-2.77-1.85l-8.83-21.24c-.42-1.02-.18-1.85.54-1.85s.97.83.54,1.85l-8.83,21.24c-.42,1.02-1.67,1.85-2.77,1.85h-2.7ZM94.67,51.12c-1.1,0-1.72-.85-1.37-1.9l.39-1.17c.35-1.04,1.53-1.9,2.63-1.9h10.61c1.1,0,2.29.85,2.65,1.89l.4,1.18c.36,1.04-.25,1.89-1.35,1.89h-13.95Z"/><path class="cls-1" d="M123.11,57.17c-1.1,0-2-.9-2-2v-24.24c0-1.1.9-2,2-2h2.58c1.1,0,2,.9,2,2v18.92c0,1.1.9,2,2,2h10.08c1.1,0,2,.9,2,2v1.33c0,1.1-.9,2-2,2h-16.66Z"/><path class="cls-1" d="M151.76,57.17c-1.1,0-2-.9-2-2v-7.54c0-1.1.32-1.16.71-.13l.08.21c.39,1.03.24,1.1-.33.16l-10.4-17.23c-.57-.94-.13-1.71.97-1.71h2.98c1.1,0,2.46.77,3.03,1.71l7.46,12.39c.57.94.13,1.71-.97,1.71s-1.53-.77-.96-1.71l7.49-12.39c.57-.94,1.93-1.71,3.03-1.71h2.37c1.1,0,1.54.77.97,1.72l-10.33,17.23c-.57.94-.71.87-.32-.16l.08-.21c.39-1.03.71-.97.71.13v7.54c0,1.1-.9,2-2,2h-2.58Z"/><path class="cls-1" d="M178.89,57.66c-2.26,0-4.43-.3-6.52-.91-2.08-.6-3.31-1.33-3.31-1.33-.94-.56-1.35-1.85-.89-2.85l.58-1.28c.45-1,1.59-1.36,2.54-.79,0,0,.89.54,2.56,1.09,1.67.55,3.35.83,5.04.83,1.29,0,2.33-.13,3.13-.4.79-.27,1.38-.63,1.75-1.07.38-.44.56-.96.56-1.55,0-.75-.3-1.35-.89-1.79-.59-.44-1.38-.81-2.36-1.09s-2.05-.55-3.21-.81c-1.16-.26-2.32-.57-3.49-.93-1.17-.36-2.25-.85-3.23-1.45-.98-.61-1.76-1.4-2.34-2.38-.58-.98-.87-2.21-.87-3.69,0-1.61.43-3.09,1.29-4.42.86-1.33,2.17-2.39,3.93-3.19,1.76-.79,3.97-1.19,6.64-1.19,1.78,0,3.53.22,5.27.65,1.73.43,2.76.95,2.76.95.98.5,1.44,1.74,1.01,2.75l-.52,1.23c-.42,1.01-1.58,1.45-2.56.96,0,0-.78-.38-2.12-.75-1.35-.36-2.64-.54-3.87-.54s-2.33.14-3.11.42-1.35.67-1.71,1.15c-.36.48-.54,1.02-.54,1.61,0,.75.3,1.36.89,1.82.59.46,1.37.81,2.34,1.07.97.26,2.04.51,3.23.77,1.18.26,2.35.57,3.51.95,1.16.38,2.22.85,3.19,1.43.97.58,1.76,1.36,2.36,2.34.6.98.91,2.2.91,3.65,0,1.59-.44,3.04-1.31,4.36-.87,1.32-2.2,2.38-3.97,3.19-1.78.81-4,1.21-6.66,1.21Z"/><path class="cls-1" d="M202.92,57.17c-1.1,0-2-.9-2-2v-18.92c0-1.1-.9-2-2-2h-5.04c-1.1,0-2-.9-2-2v-1.33c0-1.1.9-2,2-2h20.61c1.1,0,2,.9,2,2v1.33c0,1.1-.9,2-2,2h-5.04c-1.1,0-2,.9-2,2v18.92c0,1.1-.9,2-2,2h-2.54Z"/><path class="cls-1" d="M281.98,55.04c-1.77,0-3.33-.33-4.68-.99-1.35-.66-2.41-1.68-3.18-3.04-.77-1.37-.95-3.18-.95-3.18-.11-1.09-.2-2.89-.2-3.99v-7.89c0-1.1.9-2,2-2h.91c1.1,0,2,.9,2,2v7.27c0,1.1.12,2.89.26,3.98,0,0,.17,1.25,1.02,2.17.86.92,2.05,1.38,3.59,1.38,1.14,0,2.14-.23,3-.7s1.52-1.17,1.99-2.11.52-1.48.52-1.48c.1-1.1.18-2.89.18-3.99v-6.53c0-1.1.9-2,2-2h.87c1.1,0,2,.9,2,2v16.82c0,1.1-.9,2-2,2h-.64c-1.1,0-2-.9-2-2v-1.65c0-1.1.18-1.61.41-1.12s-.12,1.6-.78,2.49c0,0-.54.74-1.9,1.47s-2.83,1.09-4.44,1.09Z"/><path class="cls-1" d="M309.66,55.04c-2.31,0-4.33-.46-6.06-1.38-1.73-.92-3.07-2.18-4.02-3.78s-1.42-3.44-1.42-5.52.46-3.92,1.38-5.52,2.2-2.86,3.82-3.78c1.62-.92,3.48-1.38,5.56-1.38s3.83.45,5.42,1.34c1.58.9,2.83,2.15,3.74,3.76.91,1.61,1.36,3.52,1.36,5.73,0,.18,0,.41-.02.68v.27c-.04.25-.96.45-2.06.45h-13.35c-1.1,0-2-.73-2-1.62s.9-1.62,2-1.62h10.78c1.1,0,1.56.23,1.03.51s-1.06-.39-1.17-1.48c0,0-.02-.23-.53-1.15-.51-.92-1.2-1.64-2.09-2.14-.88-.51-1.92-.76-3.12-.76s-2.22.25-3.14.76c-.92.51-1.63,1.23-2.12,2.16-.49.94-.53,1.25-.53,1.25-.12,1.09-.21,2.16-.21,2.38s.11,1.28.24,2.38c0,0,.04.37.6,1.33.56.96,1.36,1.71,2.4,2.24,1.04.53,2.25.8,3.63.8,1.17,0,2.22-.2,3.16-.58s.97-.42.97-.42c.84-.71,2.12-.62,2.84.21l.02.03c.72.83.64,2.11-.18,2.84,0,0-.66.59-2.08,1.16-1.42.57-3.04.86-4.85.86Z"/></svg>