<?xml version="1.0" encoding="UTF-8"?>
<svg id="Layer_1" xmlns="http://www.w3.org/2000/svg" version="1.1" viewBox="0 0 104.09 49.82">
  <!-- Generator: Adobe Illustrator 29.5.1, SVG Export Plug-In . SVG Version: 2.1.0 Build 141)  -->
  <defs>
    <style>
      .st0 {
        fill: #be0010;
      }

      .st0, .st1 {
        fill-rule: evenodd;
      }

      .st2, .st3, .st4 {
        isolation: isolate;
      }

      .st3 {
        letter-spacing: .07em;
      }

      .st3, .st4 {
        font-family: Roboto-Medium, Roboto;
        font-size: 5.46px;
        font-weight: 500;
      }

      .st4 {
        letter-spacing: .04em;
      }
    </style>
  </defs>
  <path id="Path_10515" class="st0" d="M4.84,8.17h2v4.6h-2s0-4.6,0-4.6Z"/>
  <path id="Path_10516" class="st1" d="M4.84,32.5h2V14.42h-2s0,18.08,0,18.08Z"/>
  <path id="Path_10517" class="st1" d="M12.3,14.41v18.1h2.02v-10.88c-.01-.47.04-.95.15-1.41.22-.88.76-2.28,2-3.13.54-.37,1.15-.63,1.78-.77.75-.16,1.9-.23,3.43.19,0,0,1.57.34,1.91,2.55,0,0,.08.47.13,1.09.05.56.05,1.12.05,1.69v10.69h2.1v-12.6c0-.83-.11-1.66-.35-2.46-.31-.93-.93-1.56-1.73-2.08-.48-.31-1-.56-1.54-.73-1.33-.42-3.17-.4-4.51.02-1.08.34-2.45,1.1-3.48,2.81v-3.07h-1.96,0Z"/>
  <path id="Path_10518" class="st1" d="M50.05,20.01h-2.03s-.07-2.46,1.69-3.94c0,0,1.11-1.26,3.55-1.59,1.17-.16,2.35-.15,3.51.03,1.14.18,2.22.66,3.13,1.38,0,0,.81.63,1.19,2.12.12.5.17,1.02.16,1.53v9.96s0,1.09.74,1.1h1.24v1.5s-1.73.35-2.79-.06c0,0-1.21-.43-1.16-2.42,0,0-1.98,2.49-5.24,2.86,0,0-3.72.43-5.42-1.41,0,0-1.64-1.3-1.44-3.94,0,0-.21-2.62,2.94-4.01,0,0,1.28-.64,5.04-.93,0,0,2.07-.05,3.01-.66.42-.24.75-.62.92-1.07.08-.27.1-.55.07-.82-.03-.54-.13-1.52-.56-2.14,0,0-.29-.62-1.44-1.02-.73-.24-1.5-.34-2.27-.31-.5,0-.99.04-1.49.12-.73.09-1.41.38-1.99.83-.88.71-1.39,1.78-1.36,2.92v-.03ZM59.17,23.07v2.27c0,.41-.03.82-.12,1.23-.15.66-.49,1.66-1.22,2.43-.55.54-1.21.97-1.93,1.24-.84.32-1.73.47-2.63.46-.8,0-1.61-.07-2.33-.44-.82-.4-1.41-1.15-1.6-2.04-.12-.52-.1-1.05.05-1.56.21-.69.77-1.7,2.24-2.29.25-.12.5-.23.77-.31.6-.18,1.23-.27,1.85-.28.35-.01.69-.02,1.03-.04,1.22-.09,3.19-.29,3.89-.67h0Z"/>
  <path id="Path_10519" class="st1" d="M68.75,17.64v-3.22h-2v18.08h2v-9.76c0-.41.01-.82.06-1.23.08-.62.25-1.64.55-2.37.12-.28.27-.55.45-.8.3-.44.68-.82,1.13-1.11.35-.21.72-.38,1.11-.49.7-.22,1.43-.3,2.16-.23v-2.09s-1.94-.21-3.58.86c-.85.58-1.51,1.4-1.88,2.37h0Z"/>
  <path id="Path_10520" class="st1" d="M79.87,17.85v-3.43h-2v18.08h2v-3.43s1.24,2.6,4.21,3.33c0,0,2.89.55,5.22-.55.54-.28,1.04-.62,1.5-1.02,1.14-.97,1.88-2.25,2.3-3.68.35-1.22.52-2.47.51-3.74-.02-1.33-.22-2.66-.59-3.94-.38-1.32-1.14-2.51-2.17-3.42-.46-.4-.98-.74-1.53-1-1.53-.73-3.52-.87-5.16-.5-1.86.39-3.44,1.61-4.29,3.31h0ZM84.81,16.18c.72-.09,1.46-.05,2.17.1,1.14.25,2.13.77,2.89,1.68.54.66.94,1.41,1.18,2.23.37,1.22.43,2.49.38,3.75-.06,1.71-.34,3.4-1.39,4.79-.37.51-.84.94-1.37,1.27-.46.26-.96.45-1.48.58-1.76.44-3.83.1-5.17-1.1-.89-.82-1.54-1.88-1.87-3.05-.16-.58-.25-1.18-.27-1.79-.03-.47-.05-1.05-.04-1.65,0-1.01.15-2.01.46-2.98.24-.71.59-1.38,1.05-1.97.39-.5.87-.92,1.43-1.23.64-.34,1.33-.55,2.05-.63h-.02Z"/>
  <path id="Path_10521" class="st0" d="M77.87,32.5h2v6.14h-2v-6.14Z"/>
  <path id="Path_10522" class="st0" d="M10.88,35.96c.23.19.5.32.79.38.78.18,1.62-.02,2.37-.25.88-.28,2.19-.82,3.83-1.87,0,0,2.58-1.76,5-3.83.32-.27.62-.55.93-.83v1.49c-1.29,1.12-2.63,2.17-4.03,3.15-1.7,1.19-3.53,2.17-5.47,2.92-2.67.96-4.01.27-4.01.27-1.09-.38-1.52-1.36-1.68-2.19-.18-.94-.06-1.92.14-2.85.35-1.65,1.05-3.37,1.67-4.69.7-1.5,1.51-2.94,2.42-4.33,1.44-2.16,3.02-4.22,4.72-6.18.97-1.16,2.36-2.59,3.44-3.67,1.37-1.39,2.81-2.7,4.32-3.93,1.83-1.45,3.47-2.54,3.47-2.54,1.84-1.24,4.12-2.19,4.75-2.44.13-.05.26-.12.39-.19,1.01-.57,2.13-.94,3.28-1.09.55-.06,1.03-.05,1.53.22.42.22.74.58.91,1.02.13.37.19.76.17,1.16-.03,1.49-.63,3.2-.63,3.2-.3,1.36-.74,2.69-1.32,3.96-.91,2.23-3.3,5.99-3.3,5.99-1.16,1.78-3.99,5.27-3.99,5.27-1.48,1.89-4.56,4.9-4.56,4.9l-.11.11v-1.58c.67-.66,1.42-1.42,2.12-2.16.79-.84,1.53-1.72,2.28-2.6.69-.82,1.52-1.83,2.25-2.77.64-.82,1.23-1.67,1.82-2.53.46-.67,1.01-1.48,1.5-2.25.61-.94,1.17-1.91,1.67-2.9.51-1,1.17-2.38,1.55-3.53.08-.73.09-1.47,0-2.19-.03-.45-.18-.88-.43-1.25-.23-.33-.53-.61-.88-.81-.51-.29-1-.35-1.57-.36-.82-.01-1.63.12-2.41.38-.16.06-.3.13-.45.21-.31.18-.89.51-1.49.88-.84.52-1.63,1.09-2.41,1.69-.79.61-1.96,1.53-2.98,2.44-.6.54-1.18,1.12-1.77,1.68-.7.67-1.75,1.7-2.72,2.74-.91.97-1.78,2-2.65,3.02-1.17,1.36-2.27,2.78-3.28,4.25,0,0-1.56,1.94-3.64,5.75-.35.63-.68,1.26-.96,1.92-.48,1.09-.86,2.23-1.13,3.39-.13.61-.24,1.35-.15,2.02.05.53.3,1.02.69,1.38h0v.02Z"/>
  <path id="Path_10523" class="st1" d="M33.08,23.22v-8.81h-2v18.08h2v-6.79l3.29-3.14,6.59,9.91h2.37l-7.57-11.28,6.97-6.79h-2.55l-9.1,8.81h0Z"/>
  <path id="Path_10524" class="st0" d="M31.08,8.23h2v6.19h-2v-6.19Z"/>
  <path id="Path_10525" d="M94.97,8.75c.59,0,1.18.16,1.7.45.55.29.99.74,1.29,1.28.62,1.07.62,2.38,0,3.45-.29.54-.74.99-1.28,1.28-1.07.61-2.37.61-3.44,0-.54-.3-.99-.74-1.28-1.28-.61-1.07-.61-2.38,0-3.45.3-.54.75-.99,1.29-1.28.52-.29,1.1-.44,1.7-.45h.02ZM94.97,9.32c-.5,0-.98.13-1.42.37-.45.24-.83.61-1.08,1.07-.52.89-.52,1.99,0,2.88.25.45.62.82,1.07,1.07.89.51,1.98.51,2.87,0,.45-.25.82-.62,1.07-1.07.51-.89.51-1.99,0-2.88-.25-.45-.62-.82-1.08-1.07-.43-.24-.92-.37-1.42-.37h-.01ZM93.45,14.11v-3.72h1.28c.32-.01.64.02.95.1.19.07.35.19.47.36.11.16.17.35.17.55,0,.27-.1.52-.29.71-.21.21-.48.33-.77.34.12.04.22.11.32.2.21.23.39.47.55.74l.45.73h-.73l-.33-.59c-.26-.46-.47-.75-.63-.86-.14-.1-.31-.14-.48-.13h-.35v1.58h-.61ZM94.06,12.02h.73c.35,0,.59-.05.71-.16.21-.18.25-.48.1-.71-.06-.09-.15-.16-.25-.19-.2-.05-.4-.08-.6-.06h-.68v1.12h-.01Z"/>
  <g class="st2">
    <text class="st4" transform="translate(4.79 45.09)"><tspan x="0" y="0">Y</tspan></text>
    <text class="st3" transform="translate(8.32 45.09)"><tspan x="0" y="0">our Knowledge... Our Solution...!</tspan></text>
  </g>
</svg>