<?xml version="1.0" encoding="UTF-8"?>
<svg id="Layer_1" xmlns="http://www.w3.org/2000/svg" version="1.1" viewBox="0 0 104.09 49.82">
  <!-- Generator: Adobe Illustrator 29.5.1, SVG Export Plug-In . SVG Version: 2.1.0 Build 141)  -->
  <defs>
    <style>
      .st0 {
        fill: #be0010;
      }

      .st0, .st1 {
        fill-rule: evenodd;
      }

      .st2, .st3 {
        isolation: isolate;
      }

      .st3 {
        font-family: Roboto-Regular, Roboto;
        font-size: 7.17px;
        letter-spacing: .2em;
      }
    </style>
  </defs>
  <g>
    <path id="Path_10515" class="st0" d="M14.65,9.07h1.68v3.87h-1.68v-3.87Z"/>
    <path id="Path_10516" class="st1" d="M14.65,29.55h1.68v-15.23h-1.68v15.23Z"/>
    <path id="Path_10517" class="st1" d="M20.94,14.32v15.24h1.7v-9.16c0-.4.03-.8.13-1.19.19-.74.64-1.92,1.68-2.64.45-.31.97-.53,1.5-.65.63-.13,1.6-.19,2.89.16,0,0,1.32.29,1.61,2.15,0,0,.07.4.11.92.04.47.04.94.04,1.42v9h1.77v-10.61c0-.7-.09-1.4-.29-2.07-.26-.78-.78-1.31-1.46-1.75-.4-.26-.84-.47-1.3-.61-1.12-.35-2.67-.34-3.8.02-.91.29-2.06.93-2.93,2.37v-2.59h-1.65Z"/>
    <path id="Path_10518" class="st1" d="M52.74,19.04h-1.71s-.06-2.07,1.42-3.32c0,0,.93-1.06,2.99-1.34.99-.13,1.98-.13,2.96.03.96.15,1.87.56,2.64,1.16,0,0,.68.53,1,1.79.1.42.14.86.13,1.29v8.39s0,.92.62.93h1.04v1.26s-1.46.29-2.35-.05c0,0-1.02-.36-.98-2.04,0,0-1.67,2.1-4.41,2.41,0,0-3.13.36-4.56-1.19,0,0-1.38-1.09-1.21-3.32,0,0-.18-2.21,2.48-3.38,0,0,1.08-.54,4.24-.78,0,0,1.74-.04,2.53-.56.35-.2.63-.52.77-.9.07-.23.08-.46.06-.69-.03-.45-.11-1.28-.47-1.8,0,0-.24-.52-1.21-.86-.61-.2-1.26-.29-1.91-.26-.42,0-.83.03-1.25.1-.61.08-1.19.32-1.68.7-.74.6-1.17,1.5-1.15,2.46v-.03h0ZM60.41,21.61v1.91c0,.35-.03.69-.1,1.04-.13.56-.41,1.4-1.03,2.05-.46.45-1.02.82-1.63,1.04-.71.27-1.46.4-2.21.39-.67,0-1.36-.06-1.96-.37-.69-.34-1.19-.97-1.35-1.72-.1-.44-.08-.88.04-1.31.18-.58.65-1.43,1.89-1.93.21-.1.42-.19.65-.26.51-.15,1.04-.23,1.56-.24.29,0,.58-.02.87-.03,1.03-.08,2.69-.24,3.28-.56h-.01Z"/>
    <path id="Path_10519" class="st1" d="M68.49,17.04v-2.71h-1.68v15.23h1.68v-8.22c0-.35,0-.69.05-1.04.07-.52.21-1.38.46-2,.1-.24.23-.46.38-.67.25-.37.57-.69.95-.93.29-.18.61-.32.93-.41.59-.19,1.2-.25,1.82-.19v-1.76s-1.63-.18-3.02.72c-.72.49-1.27,1.18-1.58,2h0v-.02Z"/>
    <path id="Path_10520" class="st1" d="M77.85,17.21v-2.89h-1.68v15.23h1.68v-2.89s1.04,2.19,3.55,2.8c0,0,2.43.46,4.4-.46.45-.24.88-.52,1.26-.86.96-.82,1.58-1.89,1.94-3.1.29-1.03.44-2.08.43-3.15-.02-1.12-.19-2.24-.5-3.32-.32-1.11-.96-2.11-1.83-2.88-.39-.34-.83-.62-1.29-.84-1.29-.61-2.96-.73-4.35-.42-1.57.33-2.9,1.36-3.61,2.79h0ZM82,15.81c.61-.08,1.23-.04,1.83.08.96.21,1.79.65,2.43,1.41.45.56.79,1.19.99,1.88.31,1.03.36,2.1.32,3.16-.05,1.44-.29,2.86-1.17,4.03-.31.43-.71.79-1.15,1.07-.39.22-.81.38-1.25.49-1.48.37-3.23.08-4.35-.93-.75-.69-1.3-1.58-1.57-2.57-.13-.49-.21-.99-.23-1.51-.03-.4-.04-.88-.03-1.39,0-.85.13-1.69.39-2.51.2-.6.5-1.16.88-1.66.33-.42.73-.77,1.2-1.04.54-.29,1.12-.46,1.73-.53h-.02v.02Z"/>
    <path id="Path_10521" class="st0" d="M76.17,29.55h1.68v5.17h-1.68v-5.17Z"/>
    <path id="Path_10522" class="st0" d="M19.74,32.46c.19.16.42.27.67.32.66.15,1.36-.02,2-.21.74-.24,1.84-.69,3.23-1.57,0,0,2.17-1.48,4.21-3.23.27-.23.52-.46.78-.7v1.25c-1.09.94-2.21,1.83-3.39,2.65-1.43,1-2.97,1.83-4.61,2.46-2.25.81-3.38.23-3.38.23-.92-.32-1.28-1.15-1.41-1.84-.15-.79-.05-1.62.12-2.4.29-1.39.88-2.84,1.41-3.95.59-1.26,1.27-2.48,2.04-3.65,1.21-1.82,2.54-3.55,3.98-5.2.82-.98,1.99-2.18,2.9-3.09,1.15-1.17,2.37-2.27,3.64-3.31,1.54-1.22,2.92-2.14,2.92-2.14,1.55-1.04,3.47-1.84,4-2.05.11-.04.22-.1.33-.16.85-.48,1.79-.79,2.76-.92.46-.05.87-.04,1.29.19.35.19.62.49.77.86.11.31.16.64.14.98-.03,1.25-.53,2.7-.53,2.7-.25,1.15-.62,2.27-1.11,3.34-.77,1.88-2.78,5.04-2.78,5.04-.98,1.5-3.36,4.44-3.36,4.44-1.25,1.59-3.84,4.13-3.84,4.13l-.09.09v-1.33c.56-.56,1.2-1.2,1.79-1.82.67-.71,1.29-1.45,1.92-2.19.58-.69,1.28-1.54,1.89-2.33.54-.69,1.04-1.41,1.53-2.13.39-.56.85-1.25,1.26-1.89.51-.79.99-1.61,1.41-2.44.43-.84.99-2,1.31-2.97.07-.61.08-1.24,0-1.84-.03-.38-.15-.74-.36-1.05-.19-.28-.45-.51-.74-.68-.43-.24-.84-.29-1.32-.3-.69,0-1.37.1-2.03.32-.13.05-.25.11-.38.18-.26.15-.75.43-1.25.74-.71.44-1.37.92-2.03,1.42-.67.51-1.65,1.29-2.51,2.05-.51.45-.99.94-1.49,1.41-.59.56-1.47,1.43-2.29,2.31-.77.82-1.5,1.68-2.23,2.54-.99,1.15-1.91,2.34-2.76,3.58,0,0-1.31,1.63-3.07,4.84-.29.53-.57,1.06-.81,1.62-.4.92-.72,1.88-.95,2.86-.11.51-.2,1.14-.13,1.7.04.45.25.86.58,1.16h0v.02h0l-.03-.04Z"/>
    <path id="Path_10523" class="st1" d="M38.44,21.74v-7.42h-1.68v15.23h1.68v-5.72l2.77-2.64,5.55,8.35h2l-6.38-9.5,5.87-5.72h-2.15l-7.66,7.42h0Z"/>
    <path id="Path_10524" class="st0" d="M36.76,9.12h1.68v5.21h-1.68v-5.21Z"/>
  </g>
  <g class="st2">
    <text class="st3" transform="translate(31.67 42.16)"><tspan x="0" y="0">TELECOM</tspan></text>
  </g>
</svg>