<?xml version="1.0" encoding="UTF-8"?>
<svg id="Layer_1" xmlns="http://www.w3.org/2000/svg" version="1.1" viewBox="0 0 104.09 49.82">
  <!-- Generator: Adobe Illustrator 29.5.1, SVG Export Plug-In . SVG Version: 2.1.0 Build 141)  -->
  <defs>
    <style>
      .st0 {
        fill: #be0010;
      }

      .st0, .st1 {
        fill-rule: evenodd;
      }

      .st2 {
        letter-spacing: 0em;
      }

      .st2, .st3, .st4 {
        isolation: isolate;
      }

      .st2, .st4 {
        font-family: Roboto-Regular, Roboto;
        font-size: 7.28px;
      }
    </style>
  </defs>
  <g>
    <path id="Path_10515" class="st0" d="M11.73,7.87h1.81v4.17h-1.81v-4.17Z"/>
    <path id="Path_10516" class="st1" d="M11.73,29.95h1.81V13.53h-1.81v16.42Z"/>
    <path id="Path_10517" class="st1" d="M18.51,13.53v16.43h1.83v-9.88c0-.43.03-.86.14-1.28.2-.8.69-2.07,1.81-2.85.49-.33,1.05-.57,1.62-.7.68-.14,1.73-.2,3.12.17,0,0,1.42.31,1.74,2.32,0,0,.08.43.12.99.04.51.04,1.01.04,1.53v9.7h1.91v-11.44c0-.75-.1-1.51-.31-2.23-.28-.84-.84-1.41-1.57-1.89-.43-.28-.91-.51-1.4-.66-1.21-.38-2.88-.37-4.1.02-.98.31-2.22,1-3.16,2.56v-2.79h-1.78Z"/>
    <path id="Path_10518" class="st1" d="M52.8,18.62h-1.84s-.06-2.23,1.53-3.58c0,0,1-1.14,3.22-1.44,1.07-.14,2.13-.14,3.19.03,1.04.16,2.02.6,2.85,1.25,0,0,.73.57,1.08,1.93.11.45.15.93.14,1.39v9.05s0,.99.67,1h1.12v1.36s-1.57.31-2.53-.05c0,0-1.1-.39-1.06-2.2,0,0-1.8,2.26-4.76,2.6,0,0-3.37.39-4.92-1.28,0,0-1.49-1.18-1.3-3.58,0,0-.19-2.38,2.67-3.64,0,0,1.16-.58,4.57-.84,0,0,1.88-.04,2.73-.6.38-.22.68-.56.83-.97.08-.25.09-.5.06-.74-.03-.49-.12-1.38-.51-1.94,0,0-.26-.56-1.3-.93-.66-.22-1.36-.31-2.06-.28-.45,0-.89.03-1.35.11-.66.09-1.28.35-1.81.75-.8.65-1.26,1.62-1.24,2.65v-.03h.01ZM61.07,21.39v2.06c0,.38-.03.74-.11,1.12-.14.6-.44,1.51-1.11,2.21-.5.49-1.1.88-1.76,1.12-.77.29-1.57.43-2.38.42-.72,0-1.47-.06-2.11-.4-.74-.37-1.28-1.05-1.46-1.85-.11-.47-.09-.95.04-1.41.19-.63.7-1.54,2.04-2.08.23-.11.45-.2.7-.28.55-.16,1.12-.25,1.68-.26.31,0,.63-.02.94-.03,1.11-.09,2.9-.26,3.54-.6h-.01Z"/>
    <path id="Path_10519" class="st1" d="M69.78,16.46v-2.92h-1.81v16.42h1.81v-8.86c0-.38,0-.74.05-1.12.08-.56.23-1.49.5-2.16.11-.26.25-.5.41-.72.27-.4.61-.74,1.02-1,.31-.19.66-.35,1-.44.64-.2,1.29-.27,1.96-.2v-1.9s-1.76-.19-3.26.78c-.78.53-1.37,1.27-1.7,2.16h0v-.02Z"/>
    <path id="Path_10520" class="st1" d="M79.87,16.65v-3.12h-1.81v16.42h1.81v-3.12s1.12,2.36,3.83,3.02c0,0,2.62.5,4.74-.5.49-.26.95-.56,1.36-.93,1.04-.88,1.7-2.04,2.09-3.34.31-1.11.47-2.24.46-3.4-.02-1.21-.2-2.42-.54-3.58-.35-1.2-1.04-2.28-1.97-3.11-.42-.37-.89-.67-1.39-.91-1.39-.66-3.19-.79-4.69-.45-1.69.36-3.13,1.47-3.89,3.01h0ZM84.35,15.14c.66-.09,1.33-.04,1.97.09,1.04.23,1.93.7,2.62,1.52.49.6.85,1.28,1.07,2.03.33,1.11.39,2.26.35,3.41-.05,1.55-.31,3.08-1.26,4.35-.33.46-.77.85-1.24,1.15-.42.24-.87.41-1.35.53-1.6.4-3.48.09-4.69-1-.81-.74-1.4-1.7-1.69-2.77-.14-.53-.23-1.07-.25-1.63-.03-.43-.04-.95-.03-1.5,0-.92.14-1.82.42-2.71.22-.65.54-1.25.95-1.79.36-.45.79-.83,1.29-1.12.58-.31,1.21-.5,1.87-.57h-.02v.02Z"/>
    <path id="Path_10521" class="st0" d="M78.06,29.95h1.81v5.57h-1.81v-5.57Z"/>
    <path id="Path_10522" class="st0" d="M17.22,33.09c.2.17.45.29.72.35.71.16,1.47-.02,2.16-.23.8-.26,1.98-.74,3.48-1.69,0,0,2.34-1.6,4.54-3.48.29-.25.56-.5.84-.75v1.35c-1.18,1.01-2.38,1.97-3.66,2.86-1.54,1.08-3.2,1.97-4.97,2.65-2.43.87-3.64.25-3.64.25-.99-.35-1.38-1.24-1.52-1.98-.16-.85-.05-1.75.13-2.59.31-1.5.95-3.06,1.52-4.26.64-1.36,1.37-2.67,2.2-3.94,1.3-1.96,2.74-3.83,4.29-5.61.88-1.06,2.15-2.35,3.13-3.33,1.24-1.26,2.56-2.45,3.92-3.57,1.66-1.32,3.15-2.31,3.15-2.31,1.67-1.12,3.74-1.98,4.31-2.21.12-.04.24-.11.36-.17.92-.52,1.93-.85,2.98-.99.5-.05.94-.04,1.39.2.38.2.67.53.83.93.12.33.17.69.15,1.06-.03,1.35-.57,2.91-.57,2.91-.27,1.24-.67,2.45-1.2,3.6-.83,2.03-3,5.43-3,5.43-1.06,1.62-3.62,4.79-3.62,4.79-1.35,1.71-4.14,4.45-4.14,4.45l-.1.1v-1.43c.6-.6,1.29-1.29,1.93-1.96.72-.77,1.39-1.56,2.07-2.36.63-.74,1.38-1.66,2.04-2.51.58-.74,1.12-1.52,1.65-2.3.42-.6.92-1.35,1.36-2.04.55-.85,1.07-1.74,1.52-2.63.46-.91,1.07-2.16,1.41-3.2.08-.66.09-1.34,0-1.98-.03-.41-.16-.8-.39-1.13-.2-.3-.49-.55-.8-.73-.46-.26-.91-.31-1.42-.32-.74,0-1.48.11-2.19.35-.14.05-.27.12-.41.19-.28.16-.81.46-1.35.8-.77.47-1.48.99-2.19,1.53-.72.55-1.78,1.39-2.71,2.21-.55.49-1.07,1.01-1.61,1.52-.64.6-1.59,1.54-2.47,2.49-.83.88-1.62,1.81-2.4,2.74-1.07,1.24-2.06,2.52-2.98,3.86,0,0-1.41,1.76-3.31,5.22-.31.57-.61,1.14-.87,1.75-.43.99-.78,2.03-1.02,3.08-.12.55-.22,1.23-.14,1.83.04.49.27.93.63,1.25h0v.02h0l-.03-.04Z"/>
    <path id="Path_10523" class="st1" d="M37.38,21.53v-8h-1.81v16.42h1.81v-6.17l2.99-2.85,5.98,9h2.16l-6.88-10.24,6.33-6.17h-2.32l-8.26,8h0Z"/>
    <path id="Path_10524" class="st0" d="M35.57,7.92h1.81v5.62h-1.81v-5.62Z"/>
  </g>
  <g class="st3">
    <text class="st2" transform="translate(11.73 43.42)"><tspan x="0" y="0">INSTRUMEN</tspan></text>
    <text class="st4" transform="translate(53.07 43.42)"><tspan x="0" y="0">T</tspan></text>
    <text class="st4" transform="translate(57.35 43.42)"><tspan x="0" y="0" xml:space="preserve"> SE</tspan></text>
    <text class="st4" transform="translate(67.81 43.42)"><tspan x="0" y="0">R</tspan></text>
    <text class="st2" transform="translate(72.3 43.42)"><tspan x="0" y="0">VICES</tspan></text>
  </g>
</svg>