<?xml version="1.0" encoding="utf-8"?>
<!-- Generator: Adobe Illustrator 22.0.0, SVG Export Plug-In . SVG Version: 6.00 Build 0)  -->
<svg version="1.1" id="Layer_1" xmlns="http://www.w3.org/2000/svg" xmlns:xlink="http://www.w3.org/1999/xlink" x="0px" y="0px"
	 viewBox="0 0 284.5 90.8" width="285" height="91" style="enable-background:new 0 0 284.5 90.8;" xml:space="preserve">
<style type="text/css">
	.st0{fill:#004994;}
</style>
<path class="st0" d="M38.1,0.3L24.5,39.8H14.2L0.6,0.3h10.3l8.6,26.7l8.6-26.7H38.1z"/>
<path class="st0" d="M41.7,39.8V0.3h26.7v7.5H51.6v7.8h9.3v7.5h-9.3v9.1h16.8v7.5H41.7z"/>
<path class="st0" d="M149.8,20.1c0,3.7-0.8,7-2.4,9.9c-1.6,2.9-3.6,5.1-6.1,6.7c-2,1.3-4.3,2.2-6.7,2.6c-2.4,0.4-5,0.6-7.7,0.6
	h-12.3V0.3h12.2c2.8,0,5.4,0.2,7.8,0.5c2.4,0.4,4.7,1.2,6.8,2.6c2.6,1.7,4.6,3.9,6.1,6.7C149,13,149.8,16.3,149.8,20.1z M139.6,20
	c0-2.6-0.4-4.8-1.3-6.7c-0.9-1.8-2.3-3.3-4.1-4.3c-1.3-0.7-2.8-1.1-4.2-1.2c-1.5-0.1-3.2-0.1-5.3-0.1h-0.2v24.7h0.2
	c2.2,0,4.1,0,5.6-0.1c1.5-0.1,3-0.6,4.4-1.4c1.6-1,2.9-2.4,3.7-4.2C139.2,24.8,139.6,22.6,139.6,20z"/>
<path class="st0" d="M155.7,39.8V0.3h26.7v7.5h-16.8v7.8h9.3v7.5h-9.3v9.1h16.8v7.5H155.7z"/>
<g>
	<path class="st0" d="M202.4,18.2c1.4,0,1.8-0.1,2.8-0.3c1-0.2,1.8-0.5,2.5-1.1c0.6-0.5,1.1-1.1,1.4-1.8c0.3-0.7,0.5-1.6,0.5-2.7
		c0-1-0.2-1.8-0.6-2.6c-0.4-0.7-1-1.3-1.9-1.7c-0.6-0.3-1.3-0.4-2.1-0.5c-0.8-0.1-1.7-0.1-2.8-0.1h-3.3v10.6v7.1v14.5H189V0.3h15.9
		c2.2,0,4.1,0.1,5.7,0.4c1.6,0.3,3.1,0.8,4.5,1.7c1.4,0.9,2.5,2,3.4,3.4c0.8,1.4,1.2,3.1,1.2,5.3c0,3-0.7,5.5-2,7.4
		c-1.4,1.9-3.2,3.4-5.5,4.5l13.3,16.8h-12.1l-11-14.5L202.4,18.2z"/>
</g>
<g>
	<path class="st0" d="M88.5,18.2c1.4,0,1.8-0.1,2.8-0.3c1-0.2,1.8-0.5,2.5-1.1c0.6-0.5,1.1-1.1,1.4-1.8c0.3-0.7,0.5-1.6,0.5-2.7
		c0-1-0.2-1.8-0.6-2.6c-0.4-0.7-1-1.3-1.9-1.7c-0.6-0.3-1.3-0.4-2.1-0.5c-0.8-0.1-1.7-0.1-2.8-0.1H85v10.6v7.1v14.5h-9.9V0.3H91
		c2.2,0,4.1,0.1,5.7,0.4c1.6,0.3,3.1,0.8,4.5,1.7c1.4,0.9,2.5,2,3.4,3.4c0.8,1.4,1.2,3.1,1.2,5.3c0,3-0.7,5.5-2,7.4
		c-1.4,1.9-3.2,3.4-5.5,4.5l13.3,16.8H99.5l-11-14.5L88.5,18.2z"/>
</g>
<g>
	<g>
		<polygon class="st0" points="233,47.6 6.6,47.6 6.6,55.2 241.3,55.2 241.3,37.7 269.6,55.2 284.1,55.2 233,23.5 		"/>
	</g>
</g>
<g>
	<path class="st0" d="M82.3,90.4l-17.2,0v-3.8h17.1c1.1,0,2-0.9,2-2.1c0-1.1-0.9-1.9-2-1.9l-12.6,0c-3.1,0-5.7-2.6-5.7-5.7
		c0-3.2,2.4-5.8,5.6-5.8h17v3.8H69.7c-1,0-1.8,1-1.8,2c0,1,0.8,1.8,1.8,1.8h12.7c3.3,0,5.7,2.4,5.7,5.9
		C88.1,87.8,85.6,90.4,82.3,90.4z"/>
	<path class="st0" d="M100.6,90.4c-4.5,0-6.1-2.1-6.1-6v-7.4c0-3.7,1.4-6,6.1-6h15.5v3.8h-14.7c-1.6,0-2.2,0.6-2.2,2v7.8
		c0,1.4,0.7,2,2.2,2h14.8v3.8H100.6z"/>
	<path class="st0" d="M123.1,90.4V71h4.4v19.4H123.1z M123.2,68.3V64h4.2v4.3H123.2z"/>
	<path class="st0" d="M139.1,82.8v1.8c0,1.4,0.7,2,2.2,2H157v3.8h-16.7c-4.4,0-5.6-1.8-5.6-5.9v-7.7c0-4,1-5.9,5.6-5.9h14.8
		c4.6,0,5.6,1.6,5.6,5.9v6H139.1z M156.7,76.4c0-1.1-0.3-1.6-1.4-1.6h-14.8c-1.1,0-1.4,0.5-1.4,1.6V79h17.6V76.4z"/>
	<path class="st0" d="M189.3,90.4c0-1.7,0-1.8,0-4.5v-9.8c0-1-0.2-1.4-1.2-1.4h-14.7c-1.2,0-1.6,0.4-1.6,1.6V86c0,2.7,0,2.9,0,4.5
		h-4.4c0-2.1,0-1.8,0-4.5V75.5c0-2.7,0-2.2,0-4.5h21.3c3.3,0.1,4.9,1.4,4.9,5.2v8.5c0,2.7,0,3.8,0,5.7H189.3z"/>
	<path class="st0" d="M206.5,90.4c-3.1,0-5.8-1.2-5.8-6.1V66.8h4.4V71h7.4v3.8h-7.4v10.2c0,1.2,0.2,1.6,1.9,1.6h4.7
		c1.9,0-0.3,0,1.3,0v3.8H206.5z"/>
	<path class="st0" d="M220,90.4V71h4.4v19.4H220z M220.1,68.3V64h4.2v4.3H220.1z"/>
	<path class="st0" d="M237.7,67.8c-1.2,0-1.6,0.5-1.6,1.3V71h7v3.8h-7V86c0,2.7,0,2.9,0,4.5h-4.4c0-1.2,0-1.8,0-4.5V69.2
		c0-3,1.4-5.2,5.5-5.2h6.4v3.8C242.2,67.8,237.7,67.8,237.7,67.8z"/>
	<path class="st0" d="M249.8,90.4V71h4.4v19.4H249.8z M249.9,68.3V64h4.2v4.3H249.9z"/>
	<path class="st0" d="M267.5,90.4c-4.5,0-6.1-2.1-6.1-6v-7.4c0-3.7,1.4-6,6.1-6H283v3.8h-14.7c-1.6,0-2.2,0.6-2.2,2v7.8
		c0,1.4,0.7,2,2.2,2h14.8v3.8H267.5z"/>
</g>
</svg>
